
            <svg xmlns="http://www.w3.org/2000/svg">
                <filter id="grayscale">
                    <feColorMatrix type="saturate" values="0"/>
                </filter>
                <g filter="url(#grayscale)">
                    <svg xmlns="http://www.w3.org/2000/svg" viewBox="-48.51501518249512 30.134994506835938 672.030029296875 514.730001449585"> <svg xmlns="http://www.w3.org/2000/svg" xmlns:xlink="http://www.w3.org/1999/xlink" version="1.1" id="Layer_1" x="163.39100190734862" y="100.13499450683594" viewBox="86.6851577758789 65.53526306152344 276.9910583496094 303.04486083984375" xml:space="preserve" height="271.5662265651131" width="248.21875" preserveAspectRatio="xMinYMin" enable-background="new 0 0 450 450" style="overflow: visible;"><path class="st0" d="M277.21,355.4c0,0,35.72,1.69,35.28,5.88s-22.56,6.36-35.4,6.36L277.21,355.4z" style="opacity: 0.102; fill: #1E3A4E;"></path><polygon class="st1" points="231.11,213.83 231.25,233.39 231.9,246.03 242.8,257.15 249.44,257.87 260.42,251.15 267.28,242.2   266.99,232.02 277.09,236.64 291.82,238.52 307.9,235 306.21,240.07 315.06,241.16 323.51,233.21 334.45,232.61 339.33,237.58   335.65,247.03 346.09,240.96 350.07,230.12 349.37,225.55 359.61,210.83 361.11,195.42 353.95,179.8 357.13,164.59 347.1,135.18   331.35,111.84 319.02,105.45 311.64,106.44 306.36,98.84 289.95,88.93 278.61,79.35 261.73,69.25 243.65,68.57 234.21,73.8   229.55,82.9 232.39,95.18 233.87,100.64 228.87,108.94 233.19,120.54 231.71,128.38 230,140.1 232.73,151.81 228.18,162.84   231.82,171.03 229.66,179.22 231.79,185.25 231.05,190.2 229.65,197.43 231.12,204.45 " style="fill: #EDA29E; stroke: #1E3A4E; stroke-miterlimit: 10;"></polygon><path class="st2" d="M355.91,198.48c0,0-1.87-8.68-5.93-10.45c-4.07-1.78-4.43,11.16-4.43,11.16l-0.71,8.68l-3.45,7.17l-7.09,9.3   l-3.1,3.81l7.44,1.95l12.75-3.9l9.03-16.3l0.35-12.13L355.91,198.48z" style="fill: #E97271;"></path><path class="st2" d="M339.61,191.13l-2.78-3.3l8.84-0.59l7.61-7.42l-19.43-9.78l-4.53,6.7l0.92,4.66c0,0,0.07,0.37,0.19,0.9   l-1.27-0.91c0,0-13.88,3.48-17.45-1.33c-3.57-4.81-4.16,13.2-4.16,13.2l-11.96-0.09l-2.75,3.99c0,0-0.15,12.77,13.91,19.49   s24.36,2.75,24.36,2.75l11.34-13.99L339.61,191.13z" style="fill: #E97271;"></path><path class="st2" d="M292.31,220.98l-5.76,0.27l-4.96-2.21l-6.38-6.38l-3.1-6.2l-2.66-7.44l-4.87-5.93l-5.58-1.95l-7.44,0.89   l-3.81,3.9l-3.72,6.29c0,0,6.76,11.76,14.08,13.37l3.1,11.51l0.23,0.19l-8.1,1.09l-10.1-1.23l-11.84-7.41l-0.15,13.73l-0.29,9.15   l5.23,10.82l7.92,4.36l11.91-2.03l7.99-9.15l4.5-10.97l-1.89-4.33c0.77,0.47,1.76,1.08,2.73,1.71c2.04,1.33,29.76-2.57,29.76-2.57   l5.31-1.59l2.83-2.75l-2.3-7.35L292.31,220.98z" style="fill: #E97271;"></path><path class="st2" d="M277.35,155.57l-6.02-0.36c-0.36-0.36-3.95,6.65-3.95,6.65l-0.27,3.23l8.81,4.76l6.65,5.39l5.12,3.5   l-0.54-12.4l-1.71-6.02L277.35,155.57z" style="fill: #E97271;"></path><polygon class="st2" points="234.76,184.23 242.67,178.39 246.89,177.32 239.34,171.92 231.98,169.77 230.45,175.88 231.26,181.81     " style="fill: #E97271;"></polygon><path class="st2" d="M263.96,111.77c4.08,3.69,3.68,13.03,3.68,13.03l6.11-3.68l16.8,2.25l-1.26-4.13l-12.22-12.49   C272.89,111.6,263.96,111.77,263.96,111.77z" style="fill: #E97271;"></path><path class="st2" d="M230.81,117.16l2.16,7.1l2.43-2.61l8-0.9l6.47,1.71l4.76-1.08l6.02,1.98l6.29,5.12l-0.9-9.08   C246.43,101.3,230.81,117.16,230.81,117.16z" style="fill: #E97271;"></path><path class="st2" d="M240.24,94.88l6.38-1.08l9.16,1.53l8.72,0.27c-23.46-20.61-33.96-4.22-33.96-4.22l3.59,7.55L240.24,94.88z" style="fill: #E97271;"></path><path class="st2" d="M274.03,96.14l3.81-2.99c-8.92,0-15.02-7.11-15.02-7.11l5.94,8.73L274.03,96.14z" style="fill: #E97271;"></path><path class="st2" d="M296.1,102.79l8.18,5.19l2.42,3.6l3.41-4.47c0,0-1.54-7.71-16.9-7.71C285.46,99.88,296.1,102.79,296.1,102.79z   " style="fill: #E97271;"></path><path class="st3" d="M247.37,250.63c-14.99-2.11-15.82-19.48-15.82-19.48l-1.62,14.63l6.04,8.34l7.57,3.91l9.7-1.28l8.68-8   l5.02-9.78l-1.36-8.08C264.56,237.37,262.36,252.74,247.37,250.63z" style="fill: #BB555F;"></path><path class="st3" d="M248.99,238.04c4.19-0.21,5.53-9.36,5.53-9.36l-9.53-0.43C244.99,228.26,244.8,238.25,248.99,238.04z" style="fill: #BB555F;"></path><path class="st3" d="M312.26,185.08c-0.43-3.69-5.51,8-5.51,8c-0.45,0.05,5.11,8.74,5.11,8.74S312.69,188.77,312.26,185.08z" style="fill: #BB555F;"></path><path class="st3" d="M355.15,181.56l-2.5,0.62l-13.46,7.78l2.84,9.88l-1.81,5.7c0.44-1.87,0.69-3.29,0.69-3.29   s-10.36,13.51-22.45,13.51l0.2-8.44l-5.31-1.19l-7.6,11.72l0.8,0.38l-2.39,2.3c0,0-2.19,15.96-40.67,7.38   c-0.09-0.02,3.47,9.18,24.39,11.34c13.6,1.4,19.71-5.08,19.71-5.08l8.75-6.53l-4.18,4.4l-4.88,5.91l7.55,3.41l7.78-7.55l13.18-0.28   l2.27,2.5l-0.57,8.24l4.26-0.74l5.68-6.93l2.16-6.7l-1.25-4.2c0,0-8.13,2.73-14.88,1.76c0,0,7.69-5.3,10.17-9.83   c2.48-4.53,3.69-9.58,3.69-16.76c0-7.18,5.44-14.29,8.01-16.13C357.89,182.9,355.15,181.56,355.15,181.56z M329.71,219.61   l-8.52,3.35l-1.69,1.58l-5.1-3.09c3.06-0.74,15.52-3.85,20.7-6.35L329.71,219.61z M337.7,212.94c0.16-0.29,0.32-0.6,0.48-0.94   l-0.23,0.73L337.7,212.94z" style="fill: #BB555F;"></path><path class="st3" d="M285.33,172.8c0,0-13.03-10.03-14.5-15.9l-4.16,7.1l18.46,15.12L285.33,172.8z" style="fill: #BB555F;"></path><path class="st4" d="M267.28,233.44l-0.2,9.06c0,0-4.89,6.36-5.75,7.13s-12.27,9.27-12.27,9.27s-9.73,4.94-10.64,5.6  c-0.92,0.66-5.91,10.08-5.91,10.08l-1.43,11.71l-0.48,82.29c0,0,34.22,0.03,46.29-0.86v-16.14l0.43-15.71l5.02-9.41l6.2-8.23  l3.74-10.58l9.62-11.01l11.01-7.7l8.66-9.41l3.21-14l3.88-4.87l4.35-11.23l4.51-9.17l-1.5-7.28l-7.91-1.58l-6.64,2.85l-5.77,5.46  l-1.19,2.14l-9.65-1.34l2.21-4.9l-13.84,3.72l-15.5-1.82L267.28,233.44z" style="fill: #7BC7E1;"></path><path class="st5" d="M328.34,249.22c-5.57-1.19-6.5,5.64-9.54,13.33c-3.04,7.69-3.46,8.31-8.67,15.08s-10.48,10.5-14.83,13.91   c-4.35,3.42-6.74,9.18-11.17,15.17c-4.43,5.99-6.25,9.25-12.07,13.09c-5.82,3.84-12.36,0.68-12.36,0.68   c-7.02,11.88-4.81,47.94-4.81,47.94c14.99,0,22.51-0.63,22.51-0.63l0.81-21.6l-1.86-8.32l4.93-7.28l5.61-9.03l5.24-12.6l6.41-8.67   l10.49-6.63l10.34-10.49l3.06-9.32l2.62-6.7l3.93-5.83l2.48-7.43L328.34,249.22z" style="fill: #0093BB;"></path><path class="st5" d="M283.43,263.62l5.17-7.59l5.35-5.17l6.04-4.91l5.17-6.9l3.02-4.74c0,0-11.85,6.79-25.26,5.43   c0,0-3.6,12.98-8.36,16.73c-4.76,3.75-16.56,10.61-16.56,10.61l-7.59,6.55l-5.17,8.11l-1.47,8.54l8.36-6.98l19.83-13.97   L283.43,263.62z" style="fill: #0093BB;"></path><path class="st5" d="M303.71,251.71c-2.25,0.17-7.78,1.67-12.99,11.57l8.04,4.08l5.36-2.3l5.11-9.57l-3.53-2.97l3.72,1.51   l0.78-1.65l2.41-5.11c0,0-5.38-0.6-10.91,3.64L303.71,251.71z" style="fill: #0093BB;"></path><path class="st6" d="M231.72,190.59c0,0,0.71,12.01,4.31,10.3c3.59-1.71-0.44-4.55,4.74-11.29s10.32-12.7,16.72-11.92   C257.49,177.68,238.39,174.13,231.72,190.59z" style="fill: #EDDCD2;"></path><path class="st6" d="M279.7,172.87l-13.23-7.11c0,0-9.63-0.74-2.37,4.31c7.26,5.05,17.88,9.88,21.65,14.04   c3.78,4.16,0.87-5.24,0.87-5.24L279.7,172.87z" style="fill: #EDDCD2;"></path><path class="st6" d="M256.71,121.88l-8.51,0.39l-8.51-1.78l-6.81,5.34l-3.17,7.82l1.55,9.75l2.32,6.04c0,0-0.62-10.78,3.56-16.72   c4.18-5.93,6.53-4.95,11.84-3.95c5.31,1.01,5.4-0.08,7.97-1.63c2.57-1.55,3.17-1.76,5.88-0.62L256.71,121.88z" style="fill: #EDDCD2;"></path><path class="st6" d="M299.22,127.14l-8.4-4.82l-12.22-2.06l-7.87,4.36c0,0,17.04-4.23,48.59,24.56l-9.16-14.11L299.22,127.14z" style="fill: #EDDCD2;"></path><path class="st6" d="M283.81,141.28c-1.05,0.13,10.76,9.43,14.64,20.24c3.88,10.81,4.07,9.47,5.97,8.4   c1.91-1.07,1.55-4.23,1.35-7.32C305.57,159.51,296.32,139.73,283.81,141.28z" style="fill: #EDDCD2;"></path><path class="st6" d="M349.36,140.2l-8.68-15.47l-9.77-13.17l-12.14-5.7l-10.26,2.85l-1.25,3.88l-1.17-1.86l-13.3-10.41l-2.67-1.66   l0,0c0,0,16.06,2.54,18.79,7.03c-0.39-3.18-0.89-8.06-0.89-8.06l-13.92-6.1l-6.53-5.45l-9.97-8.97l-14.21-7.03l-11.19-1.94   l-9.97,1.51l-6.67,4.16l-3.32,6.64c0.62-1.22,7.81-14.08,29.08-2.7c16.76,8.97,20.3,16.91,20.3,16.91l0.19,0.09l-4.54,0.21   c0,0,5.73,7.29,12.76,11.61s6.46,3.79,10.17,9.93c3.71,6.14,5.5,4.06,12.58,11.13c7.08,7.08,13.96,18.53,15.47,26.36   c1.51,7.82,5.18,18.54,5.78,8.91c0.6-9.64-3.97-23.53-3.97-23.53l-9.75-13.66l-9.81-8l-2.72-4.33c2.44-1.68,9.05-4.87,16.65,2.73   c9.62,9.62,18.04,22.34,22.21,33.56s1.74,11.89,3.28,16.57c1.54,4.67,5.76,6.13,5.76,6.13l2.06-9.47L349.36,140.2z" style="fill: #EDDCD2;"></path><path class="st6" d="M309.32,106.88c-0.02-0.41-0.17-0.81-0.4-1.19C309.22,108.18,309.45,109.63,309.32,106.88z" style="fill: #EDDCD2;"></path><path class="st6" d="M232.24,80.44c-0.03,0.06-0.05,0.1-0.05,0.1L232.24,80.44z" style="fill: #EDDCD2;"></path><path class="st6" d="M230.81,299.15c0,0,2.01,0.19,4.59-9.86c2.58-10.05,0.18-13.07,10.71-20.74c10.53-7.67,25.74-15.11,28.31-31.71  l-7.91-6.29l0.17,13.6l-7.48,8.67l-10.37,5.36l-9.78,5.95l-5.78,7.4l-2.81,9.35L230.81,299.15z" style="fill: #EDDCD2;"></path><path class="st6" d="M241.14,310.29l0.49,5.1l1.16,0.51c0,0-0.88-1.36-0.32-4.51c0.56-3.15,2.56-8.08,8.31-15.22  c11.5-14.28,12.26-16.2,19.89-18.36c0,0-4.48-5.47-14.88,1.11c-10.39,6.58-11.48,15.39-11.48,15.39l-2.89,9.35L241.14,310.29z" style="fill: #EDDCD2;"></path><path class="st7" d="M356.67,178.97c1.73-5.56,5.37-13.71,0.22-26.4c-6.42-15.81-8.09-22.42-20.28-37.64   c-12.18-15.22-23.84-10.79-23.84-10.79c0.17-4.21-3.32-10.85-11.5-12.43s-4.01-0.33-18.54-12.88   c-14.54-12.54-28.68-14.08-36.75-13.02c-8.07,1.06-16.05,5.86-17.75,15.62c-1.7,9.76,2.44,15.13,2.29,17.1   c-0.15,1.96-3.02,2.78-3.02,11.18c0,8.4,2.62,11.85,3.38,13.31s-1.11,2.98-2.18,6.08c-1.07,3.1-1.45,6.32-0.74,10.69   c0.71,4.37,1.76,7.84,1.76,12.66c0,4.83-2.34,7.23-2.92,10.3c-0.59,3.07,1.01,5.17,2.14,7.35s-0.37,3.5-0.37,6.14   s0.24,3.58,1.51,6.49c1.27,2.91,0.43,2.37-0.82,6.73c-1.52,5.32-0.45,9.48-0.23,13.29s-0.65,6.47-0.65,10.39   c0,3.93,0.89,7.02,0.89,11.56s-0.19,3.04-0.95,16.2c-0.76,13.15,14.28,18.86,14.28,18.86c-14.94,8.3-13.73,21.38-13.73,26.29   s0.34,82.43,0.34,82.43l3.22-0.09c0-9.04-0.47-77.01,0.32-86.01c0.79-9,3.83-14.17,10.26-17.95c6.43-3.78,12.97-6.65,19.86-12.92   c6.89-6.27,6.34-15.84,6.34-15.84c4.93,3.32,11.33,5.37,11.33,5.37c-2.24,6.82-5.01,11.1-10.67,16.4   c-6.28,5.88-10.66,6.5-16.99,11.35c-6.33,4.85-9.95,11.04-11.07,17.34c-1.12,6.3-0.28,7.88-1.55,15.02   c-1.27,7.13,0.43,14.09,1.2,19.18c0.77,5.08-0.21,9.59-0.21,9.59c3.17-3.51,4.11-7.33,2.4-15.3s-0.92-10.76,2.12-19.39   c3.04-8.63,7.74-13.67,17.34-19.67c9.6-6,11.89-6.24,14.22-7.69c2.33-1.46,2.81-2.87,9.76-2.48c6.95,0.4,9.65,3.62,9.65,3.62   c-6.44-0.37-17.31,4.05-17.31,4.05c22.11,1.26,23.85-3.21,27.57-9.39c3.72-6.18,5.63-12.25,7.69-16.55   c2.06-4.3,4.61-10.59,11.84-12.89c7.22-2.29,9.26,2.34,9.26,2.34c-2.53,1.45-5.73,3.07-7.89,8.13c-2.16,5.07,0.98,8.08,0.98,8.08   c-0.92,3.84-1.74,8.81-4.89,10.07c-5.33,2.13-10.07-2.72-10.07-2.72c2.11,6.42,8.59,7.47,8.59,7.47   c-2.39,12.61-8.02,17.19-10.32,19.07s-6.73,5.1-6.73,5.1c-2.46,0.41-7.49-5.98-7.49-5.98c0.8,5.75,4.98,8.24,4.98,8.24   s-0.58,0.7-3.59,3.26c-3.01,2.56-5.43,4.92-9.03,11.59c-3.6,6.68-3.92,8.38-8.31,15.89c-4.39,7.51-8,9.63-9.81,11.77   s-1.68,5.24-1.68,5.24l-0.12,26.27l2.78-0.08c0,0,0.04-20.56,0.04-24.63s2.19-4.61,2.19-4.61l-0.04,29.09   c7.2,0,18.26-1.37,18.26-1.37l-14.94-0.7l-0.04-1.13l19.16-1.49l-19.2-0.47l0.23-1.17l14.35-0.98l-14.54-0.55   c0,0,0.35-14.55,0.35-20.75c0-6.2,5.46-9.9,8.32-14.56c2.86-4.66,2.5-6.27,5.32-11.74c2.82-5.47,3.61-7.45,8.67-11.56   c5.7-4.64,6.64-5.59,15.74-13.97c7.32-6.74,9.02-19.95,9.02-19.95c3.46-2.26,3.98-4.1,5.19-9.83s3.87-8.26,3.87-8.26   c19.13-6.28,16.44-21.95,16.44-21.95c4.14-2.83,11.18-14.05,12.03-28.35C364.47,184.75,356.67,178.97,356.67,178.97z    M313.65,109.04c4.22-0.78,7.86-0.56,14.3,4.09c6.44,4.65,16.04,22.23,19.13,28.74c3.69,7.78,13.89,27.47,2.22,39.13   c-10.19,10.19-17.5-2.49-17.5-2.49c6.59-9.29,7.99-20.91,1.2-36.99c-6.79-16.08-16.75-22.5-20.87-25.47   S309.43,109.82,313.65,109.04z M251.47,70.67c12.18,0,29.25,13.02,32.44,16.2c3.73,3.73,7.48,7.81,13.7,9.28   c6.22,1.46,9.98,5.34,11.22,9.12l-2.51,2.85c0,0-2.5-3.72-10.47-7.48c-7.97-3.76-8.98-5.61-12.2-7.62s-6.39-1.29-8.26,0.15   s-2.85,2.79-7.08-1.92c-4.24-4.71-13.44-15.44-27.99-7.97c0,0,13.81-0.71,21.25,6.25c7.44,6.96-1.67,5.31-5.12,4.38   c-3.44-0.93-12.5-3.75-21.53,1.52C234.91,95.43,225.27,70.67,251.47,70.67z M235.97,100c3.34-3.74,9.16-7.01,16.7-3.52   c7.55,3.49,9.99,1.96,9.99,1.96c3.09-0.99,5.98-2.46,7.99-1.32c2.02,1.14,2.48,2.04,4.49,7.67c3.18,8.89,10.88,14.11,10.88,14.11   c-6.87-2.83-15.88,1-15.88,1s-0.74-14.12-15.9-13.59c-12.91,0.45-14.76-0.32-14.76-0.32c2.02,6.05,9.39,2.68,13.67,3.28   c4.28,0.6,5.73,0.8,9.75,4.81s2.43,10.19,2.43,10.19c-1.39-1.99-5.61-5.89-10.03-4.73c-4.42,1.16-6.3,0.79-12.17-1.01   c-5.87-1.8-8.74,1.66-8.74,1.66C229.88,110.53,232.62,103.74,235.97,100z M262.37,245.4c-3.75,5.36-9.01,8.61-13.86,9.22   c-4.86,0.6-9.13-0.96-13.63-7.86s-1.68-22.78-1.68-22.78c4.4,0.61,10.11,5.27,10.11,5.27s-0.22,0.63-0.01,4.83   c0.17,3.49,2.65,5.51,6.04,5.51c4.7,0,5.92-5.56,6.55-8.14c0.63-2.57,3.8-4.26,6.75-1.31S266.12,240.05,262.37,245.4z    M232.3,172.26c6.01,0,10.22,4.19,10.22,4.19c-5.12-1.29-6.72,4.58-8.99,3.35C231.26,178.57,232.3,172.26,232.3,172.26z    M246.69,229.95c1.04-0.35,5.13,0.07,5.13,0.07s1.01,5.61-2.52,5.48C245.77,235.38,246.69,229.95,246.69,229.95z M272.19,231.67   c-5.58-4.02-10.21-9.67-11.12-18.61c-0.91-8.93-5.46-9.8-5.46-9.8c1.12,3.02,0.75,4.78,0.57,7.91c-0.19,3.14-0.24,4.36,0.71,7.16   c0.94,2.8-0.2,5.75-2.12,6.69c-1.92,0.94-7.29,2.82-11.68-0.85c-4.4-3.67-5.14-1.99-7.55-4.4c-2.41-2.41-2.93-4.84-2.51-9.08   c0.42-4.24,0.61-4.74,0.1-12.95c-0.44-7.07,1.17-14.78,12.59-18.05c11.42-3.27,19.17,1.76,19.17,1.76   c-4.35-9.23-13.16-5.65-16.89-6.86c-3.73-1.21-5.92-3.61-9.18-4.32c-3.26-0.71-5.99-1.72-7.16-4.93   c-1.17-3.21,2.14-5.43,3.19-11.38c1.05-5.95-1.1-8.06-1.98-15.08c-0.88-7.03,0.21-9.15,3.23-13.31c3.02-4.16,7.3-3.5,9.96-2.66   c2.65,0.85,2.55,1.87,8.21,0.99c5.66-0.88,6.98,2.19,7.97,4.24c0.99,2.06,1.61,4.32,3.49,4.32s1.66-1.28,3.36-4.3   c1.7-3.02,8.07-7.59,18.11-3.86c14.31,5.32,18.28,8.64,27.14,19.1c7.29,8.61,4.52,14.5,4.52,14.5   c11.07-11.07-13.36-29.82-19.3-33.33c-5.94-3.51-6.78-4.61-12.31-9.76s-8.58-8.87-10.26-14.75s4.56-5.23,7.71-2.94   c3.15,2.29,8.63,6.32,13.11,8.68c4.49,2.36,5.25,4.17,8.98,10.2c3.73,6.03,5.93,5.06,12.97,13.06c7.04,8,11.41,17.96,11.82,25.36   c0.64,11.56-1.91,16.54-3.81,21.71c-1.9,5.18-1.81,5.4-1.81,5.4c-6.95,5.75-4.43,15.34-4.43,15.34c0-9.64,8.17-12.63,8.17-12.63   c4.33,3.47,13.97,15.24,6.38,26.28c-10.11,14.69-24.65,5.78-24.65,5.78c3.94-3.2,2.71-8.48,2.71-8.48   c2.17,0.84,5.93,0.53,5.93,0.53c2.21,0,3.15-2.81,0.61-2.64s-5.33-1.62-7.17-5.87c-1.84-4.25-4.18-6.62-4.18-6.62   c3.78-5.44,5.27-11.81,3.84-24.51c-1.96-17.34-17.71-26.12-19.4-27.48c-3.7-2.95-13.1-8.38-14.49-3.77   c-1.29,4.24,3.78,2.6,13.72,10.78c9.95,8.18,13.69,22.14,14.31,27.43c0.35,3.03,2.12,14.19-6.96,15.71   c-6.56,1.1-7.97-4.52-8.25-10.45s0.73-10.62-4.25-20.68c-4.98-10.06-16.6-9.17-16.6-9.17c-3.07-4.22-8.53-7.05-13.66-7.82   c-5.13-0.78-9.89-1.52-10.43-4.47s5.35-2.3,5.59-5.03c0.24-2.73-9.14-3.4-10.17,2.29c-1.04,5.69,2.65,9.39,9.11,10.99   c6.46,1.59,9.89,2.59,13.21,4.41c3.32,1.81,3.86,5.94,1.91,8.13s-8.16,1.67-11.8-0.47c-3.64-2.14-10.13-3.2-9.85-0.16   c0.28,3.04,5.87,4.52,11.47,5.66c5.6,1.14,12.72,0.85,21.13,9.25c8.4,8.4,9.4,16.35,12.22,24.32c2.83,7.97,4.4,7.63,5.72,6.97   c1.31-0.66-1.16-7.5-1.16-7.5c4.97,1.51,10.96-1,10.96-1s9.14,6.54,2.82,16.28c-3.55,5.46-14.78,9.8-23.73,5.2   c-8.95-4.61-10.73-18.24-15.09-24.48c-4.36-6.24-17.11-6.99-22.85-0.06c-5.75,6.93-0.44,14.9-0.44,14.9   c-2.08-11.84,7.76-14.59,7.76-14.59c6.48-2.59,13.26,3.19,15.09,8.07c2.2,5.87,2.09,9.98,9.45,17.34   c12.26,12.26,28.93,0.88,28.93,0.88c2.08,2.9,8.95,4.82,8.95,4.82C297,242.35,277.78,235.7,272.19,231.67z M272.99,156.26   c16.06,3.73,9.67,16.78,9.67,16.78c-4.69-6.36-12.72-9.36-12.72-9.36C274.3,161.54,272.99,156.26,272.99,156.26z M276.26,264.57   c-8,3.1-23.73,8.52-30.55,22.78c0,0-0.16-12.95,18-21.79c14.89-7.25,17.43-16.55,20.21-23.82c0,0,12.28,1.36,19.84-2.97   c0,0-4.33,5.18-7.66,8.17c-3.33,2.98-4.76,2.47-8.27,5.98C284.3,256.44,284.26,261.47,276.26,264.57z M300.06,266.12   c-4.14-3.53-13.29-4.27-13.29-4.27c6.17-16.76,20.07-7.53,20.07-7.53C304.33,264.64,300.06,266.12,300.06,266.12z M308.05,251.37   c-2.57-2.57-8.63-2.93-8.63-2.93c1-1.87,5.09-5.22,5.09-5.22c2.83-0.7,7.84,0,7.84,0C311.07,245.28,308.05,251.37,308.05,251.37z    M329.79,249.78c-0.92-7.82,6.46-11.32,6.46-11.32C335.65,244.22,329.79,249.78,329.79,249.78z M339.42,242.75   c2.19-3.15,1.04-7.74,1.04-7.74c3.66-0.9,6.62-3.75,6.62-3.75C347.08,239.9,339.42,242.75,339.42,242.75z M337.19,231.76   c0,0-10.76-7.91-22.31,7.83c0,0-3.22-1.94-6.19-1.51l14.26-12.96c0,0,11.23-1.43,18.48-14.5c5.46-9.84-0.15-19.68-0.15-19.68   s7.48,1.2,12.36-6.14C353.64,184.81,370.27,211.65,337.19,231.76z" style="fill: #1E3A4E;"></path><path class="st0" d="M173.16,355.4c0,0-35.72,1.69-35.28,5.88c0.44,4.19,22.56,6.36,35.4,6.36L173.16,355.4z" style="opacity: 0.102; fill: #1E3A4E;"></path><polygon class="st1" points="219.26,213.83 219.11,233.39 218.46,246.03 207.56,257.15 200.92,257.87 189.95,251.15 183.09,242.2   183.38,232.02 173.27,236.64 158.54,238.52 142.46,235 144.15,240.07 135.3,241.16 126.85,233.21 115.91,232.61 111.04,237.58   114.72,247.03 104.27,240.96 100.3,230.12 100.99,225.55 90.75,210.83 89.26,195.42 96.42,179.8 93.24,164.59 103.26,135.18   119.01,111.84 131.34,105.45 138.72,106.44 144,98.84 160.41,88.93 171.75,79.35 188.63,69.25 206.71,68.57 216.15,73.8   220.81,82.9 217.97,95.18 216.49,100.64 221.5,108.94 217.18,120.54 218.65,128.38 220.36,140.1 217.63,151.81 222.18,162.84   218.54,171.03 220.7,179.22 218.57,185.25 219.31,190.2 220.71,197.43 219.24,204.45 " style="fill: #EDA29E; stroke: #1E3A4E; stroke-miterlimit: 10;"></polygon><path class="st2" d="M94.46,198.48c0,0,1.87-8.68,5.93-10.45c4.07-1.78,4.43,11.16,4.43,11.16l0.71,8.68l3.45,7.17l7.09,9.3   l3.1,3.81l-7.44,1.95l-12.75-3.9l-9.03-16.3l-0.35-12.13L94.46,198.48z" style="fill: #E97271;"></path><path class="st2" d="M110.75,191.13l2.78-3.3l-8.84-0.59l-7.61-7.42l19.43-9.78l4.53,6.7l-0.92,4.66c0,0-0.07,0.37-0.19,0.9   l1.27-0.91c0,0,13.88,3.48,17.45-1.33c3.57-4.81,4.16,13.2,4.16,13.2l11.96-0.09l2.75,3.99c0,0,0.15,12.77-13.91,19.49   s-24.36,2.75-24.36,2.75l-11.34-13.99L110.75,191.13z" style="fill: #E97271;"></path><path class="st2" d="M158.05,220.98l5.76,0.27l4.96-2.21l6.38-6.38l3.1-6.2l2.66-7.44l4.87-5.93l5.58-1.95l7.44,0.89l3.81,3.9   l3.72,6.29c0,0-6.76,11.76-14.08,13.37l-3.1,11.51l-0.23,0.19l8.1,1.09l10.1-1.23l11.84-7.41l0.15,13.73l0.29,9.15l-5.23,10.82   l-7.92,4.36l-11.91-2.03l-7.99-9.15l-4.5-10.97l1.89-4.33c-0.77,0.47-1.76,1.08-2.73,1.71c-2.04,1.33-29.76-2.57-29.76-2.57   l-5.31-1.59l-2.83-2.75l2.3-7.35L158.05,220.98z" style="fill: #E97271;"></path><path class="st2" d="M173.01,155.57l6.02-0.36c0.36-0.36,3.95,6.65,3.95,6.65l0.27,3.23l-8.81,4.76l-6.65,5.39l-5.12,3.5l0.54-12.4   l1.71-6.02L173.01,155.57z" style="fill: #E97271;"></path><polygon class="st2" points="215.6,184.23 207.7,178.39 203.47,177.32 211.02,171.92 218.39,169.77 219.92,175.88 219.11,181.81     " style="fill: #E97271;"></polygon><path class="st2" d="M186.4,111.77c-4.08,3.69-3.68,13.03-3.68,13.03l-6.11-3.68l-16.8,2.25l1.26-4.13l12.22-12.49   C177.48,111.6,186.4,111.77,186.4,111.77z" style="fill: #E97271;"></path><path class="st2" d="M219.56,117.16l-2.16,7.1l-2.43-2.61l-8-0.9l-6.47,1.71l-4.76-1.08l-6.02,1.98l-6.29,5.12l0.9-9.08   C203.93,101.3,219.56,117.16,219.56,117.16z" style="fill: #E97271;"></path><path class="st2" d="M210.12,94.88l-6.38-1.08l-9.16,1.53l-8.72,0.27c23.46-20.61,33.96-4.22,33.96-4.22l-3.59,7.55L210.12,94.88z" style="fill: #E97271;"></path><path class="st2" d="M176.33,96.14l-3.81-2.99c8.92,0,15.02-7.11,15.02-7.11l-5.94,8.73L176.33,96.14z" style="fill: #E97271;"></path><path class="st2" d="M154.26,102.79l-8.18,5.19l-2.42,3.6l-3.41-4.47c0,0,1.54-7.71,16.9-7.71   C164.9,99.88,154.26,102.79,154.26,102.79z" style="fill: #E97271;"></path><path class="st3" d="M202.99,250.63c14.99-2.11,15.82-19.48,15.82-19.48l1.62,14.63l-6.04,8.34l-7.57,3.91l-9.7-1.28l-8.68-8   l-5.02-9.78l1.36-8.08C185.8,237.37,188,252.74,202.99,250.63z" style="fill: #BB555F;"></path><path class="st3" d="M201.38,238.04c-4.19-0.21-5.53-9.36-5.53-9.36l9.53-0.43C205.38,228.26,205.57,238.25,201.38,238.04z" style="fill: #BB555F;"></path><path class="st3" d="M138.1,185.08c0.43-3.69,5.51,8,5.51,8c0.45,0.05-5.11,8.74-5.11,8.74S137.68,188.77,138.1,185.08z" style="fill: #BB555F;"></path><path class="st3" d="M95.21,181.56l2.5,0.62l13.46,7.78l-2.84,9.88l1.81,5.7c-0.44-1.87-0.69-3.29-0.69-3.29   s10.36,13.51,22.45,13.51l-0.2-8.44l5.31-1.19l7.6,11.72l-0.8,0.38l2.39,2.3c0,0,2.19,15.96,40.67,7.38   c0.09-0.02-3.47,9.18-24.39,11.34c-13.6,1.4-19.71-5.08-19.71-5.08l-8.75-6.53l4.18,4.4l4.88,5.91l-7.55,3.41l-7.78-7.55   l-13.18-0.28l-2.27,2.5l0.57,8.24l-4.26-0.74l-5.68-6.93l-2.16-6.7l1.25-4.2c0,0,8.13,2.73,14.88,1.76c0,0-7.69-5.3-10.17-9.83   c-2.48-4.53-3.69-9.58-3.69-16.76c0-7.18-5.44-14.29-8.01-16.13C92.47,182.9,95.21,181.56,95.21,181.56z M120.66,219.61l8.52,3.35   l1.69,1.58l5.1-3.09c-3.06-0.74-15.52-3.85-20.7-6.35L120.66,219.61z M112.66,212.94c-0.16-0.29-0.32-0.6-0.48-0.94l0.23,0.73   L112.66,212.94z" style="fill: #BB555F;"></path><path class="st3" d="M165.03,172.8c0,0,13.03-10.03,14.5-15.9l4.16,7.1l-18.46,15.12L165.03,172.8z" style="fill: #BB555F;"></path><path class="st4" d="M183.09,233.44l0.2,9.06c0,0,4.89,6.36,5.75,7.13c0.87,0.76,12.27,9.27,12.27,9.27s9.72,4.94,10.64,5.6  c0.92,0.66,5.91,10.08,5.91,10.08l1.43,11.71l0.48,82.29c0,0-34.22,0.03-46.29-0.86v-16.14l-0.43-15.71l-5.02-9.41l-6.2-8.23  l-3.74-10.58l-9.62-11.01l-11.01-7.7l-8.66-9.41l-3.21-14l-3.88-4.87l-4.35-11.23l-4.51-9.17l1.5-7.28l7.91-1.58l6.64,2.85  l5.77,5.46l1.19,2.14l9.65-1.34l-2.21-4.9l13.84,3.72l15.5-1.82L183.09,233.44z" style="fill: #7BC7E1;"></path><path class="st5" d="M122.02,249.22c5.57-1.19,6.5,5.64,9.54,13.33c3.04,7.69,3.46,8.31,8.67,15.08s10.48,10.5,14.83,13.91   c4.35,3.42,6.74,9.18,11.17,15.17c4.43,5.99,6.25,9.25,12.07,13.09c5.82,3.84,12.36,0.68,12.36,0.68   c7.02,11.88,4.81,47.94,4.81,47.94c-14.99,0-22.51-0.63-22.51-0.63l-0.81-21.6l1.86-8.32l-4.93-7.28l-5.61-9.03l-5.24-12.6   l-6.41-8.67l-10.49-6.63l-10.34-10.49l-3.06-9.32l-2.62-6.7l-3.93-5.83l-2.48-7.43L122.02,249.22z" style="fill: #0093BB;"></path><path class="st5" d="M166.94,263.62l-5.17-7.59l-5.35-5.17l-6.04-4.91l-5.17-6.9l-3.02-4.74c0,0,11.85,6.79,25.26,5.43   c0,0,3.6,12.98,8.36,16.73c4.76,3.75,16.56,10.61,16.56,10.61l7.59,6.55l5.17,8.11l1.47,8.54l-8.36-6.98l-19.83-13.97   L166.94,263.62z" style="fill: #0093BB;"></path><path class="st5" d="M146.65,251.71c2.25,0.17,7.78,1.67,12.99,11.57l-8.04,4.08l-5.36-2.3l-5.11-9.57l3.53-2.97l-3.72,1.51   l-0.78-1.65l-2.41-5.11c0,0,5.38-0.6,10.91,3.64L146.65,251.71z" style="fill: #0093BB;"></path><path class="st6" d="M218.64,190.59c0,0-0.71,12.01-4.31,10.3c-3.59-1.71,0.44-4.55-4.74-11.29s-10.32-12.7-16.72-11.92   C192.87,177.68,211.98,174.13,218.64,190.59z" style="fill: #EDDCD2;"></path><path class="st6" d="M170.66,172.87l13.23-7.11c0,0,9.63-0.74,2.37,4.31c-7.26,5.05-17.88,9.88-21.65,14.04   c-3.78,4.16-0.87-5.24-0.87-5.24L170.66,172.87z" style="fill: #EDDCD2;"></path><path class="st6" d="M193.66,121.88l8.51,0.39l8.51-1.78l6.81,5.34l3.17,7.82l-1.55,9.75l-2.32,6.04c0,0,0.62-10.78-3.56-16.72   c-4.18-5.93-6.53-4.95-11.84-3.95c-5.31,1.01-5.4-0.08-7.97-1.63c-2.57-1.55-3.17-1.76-5.88-0.62L193.66,121.88z" style="fill: #EDDCD2;"></path><path class="st6" d="M151.14,127.14l8.4-4.82l12.22-2.06l7.87,4.36c0,0-17.04-4.23-48.59,24.56l9.16-14.11L151.14,127.14z" style="fill: #EDDCD2;"></path><path class="st6" d="M166.55,141.28c1.05,0.13-10.76,9.43-14.64,20.24c-3.88,10.81-4.07,9.47-5.97,8.4   c-1.91-1.07-1.55-4.23-1.35-7.32C144.79,159.51,154.04,139.73,166.55,141.28z" style="fill: #EDDCD2;"></path><path class="st6" d="M101.01,140.2l8.68-15.47l9.77-13.17l12.14-5.7l10.26,2.85l1.25,3.88l1.17-1.86l13.3-10.41l2.67-1.66l0,0   c0,0-16.06,2.54-18.79,7.03c0.39-3.18,0.89-8.06,0.89-8.06l13.92-6.1l6.53-5.45l9.97-8.97l14.21-7.03l11.19-1.94l9.97,1.51   l6.67,4.16l3.32,6.64c-0.62-1.22-7.81-14.08-29.08-2.7c-16.76,8.97-20.3,16.91-20.3,16.91l-0.19,0.09l4.54,0.21   c0,0-5.73,7.29-12.76,11.61s-6.46,3.79-10.17,9.93c-3.71,6.14-5.5,4.06-12.58,11.13c-7.08,7.08-13.96,18.53-15.47,26.36   c-1.51,7.82-5.18,18.54-5.78,8.91c-0.6-9.64,3.97-23.53,3.97-23.53l9.75-13.66l9.81-8l2.72-4.33c-2.44-1.68-9.05-4.87-16.65,2.73   c-9.62,9.62-18.04,22.34-22.21,33.56s-1.74,11.89-3.28,16.57c-1.54,4.67-5.76,6.13-5.76,6.13l-2.06-9.47L101.01,140.2z" style="fill: #EDDCD2;"></path><path class="st6" d="M141.05,106.88c0.02-0.41,0.17-0.81,0.4-1.19C141.14,108.18,140.91,109.63,141.05,106.88z" style="fill: #EDDCD2;"></path><path class="st6" d="M218.13,80.44c0.03,0.06,0.05,0.1,0.05,0.1L218.13,80.44z" style="fill: #EDDCD2;"></path><path class="st6" d="M219.56,299.15c0,0-2.01,0.19-4.59-9.86c-2.58-10.05-0.18-13.07-10.71-20.74  c-10.53-7.67-25.74-15.11-28.31-31.71l7.91-6.29l-0.17,13.6l7.48,8.67l10.37,5.36l9.78,5.95l5.78,7.4l2.81,9.35L219.56,299.15z" style="fill: #EDDCD2;"></path><path class="st6" d="M209.22,310.29l-0.49,5.1l-1.16,0.51c0,0,0.88-1.36,0.32-4.51s-2.56-8.08-8.31-15.22  c-11.5-14.28-12.26-16.2-19.89-18.36c0,0,4.48-5.47,14.88,1.11c10.39,6.58,11.48,15.39,11.48,15.39l2.89,9.35L209.22,310.29z" style="fill: #EDDCD2;"></path><path class="st7" d="M93.69,178.97c-1.73-5.56-5.37-13.71-0.22-26.4c6.42-15.81,8.09-22.42,20.28-37.64   c12.18-15.22,23.84-10.79,23.84-10.79c-0.17-4.21,3.32-10.85,11.5-12.43s4.01-0.33,18.54-12.88   c14.54-12.54,28.68-14.08,36.75-13.02c8.07,1.06,16.05,5.86,17.75,15.62c1.7,9.76-2.44,15.13-2.29,17.1   c0.15,1.96,3.02,2.78,3.02,11.18c0,8.4-2.62,11.85-3.38,13.31s1.11,2.98,2.18,6.08c1.07,3.1,1.45,6.32,0.74,10.69   c-0.71,4.37-1.76,7.84-1.76,12.66c0,4.83,2.34,7.23,2.92,10.3c0.59,3.07-1.01,5.17-2.14,7.35s0.37,3.5,0.37,6.14   s-0.24,3.58-1.51,6.49c-1.27,2.91-0.43,2.37,0.82,6.73c1.52,5.32,0.45,9.48,0.23,13.29s0.65,6.47,0.65,10.39   c0,3.93-0.89,7.02-0.89,11.56s0.19,3.04,0.95,16.2c0.76,13.15-14.28,18.86-14.28,18.86c14.94,8.3,13.73,21.38,13.73,26.29   s-0.34,82.43-0.34,82.43l-3.22-0.09c0-9.04,0.47-77.01-0.32-86.01c-0.79-9-3.83-14.17-10.26-17.95   c-6.43-3.78-12.97-6.65-19.86-12.92c-6.89-6.27-6.34-15.84-6.34-15.84c-4.93,3.32-11.33,5.37-11.33,5.37   c2.24,6.82,5.01,11.1,10.67,16.4c6.28,5.88,10.66,6.5,16.99,11.35s9.95,11.04,11.07,17.34c1.12,6.3,0.28,7.88,1.55,15.02   c1.27,7.13-0.43,14.09-1.2,19.18c-0.77,5.08,0.21,9.59,0.21,9.59c-3.17-3.51-4.11-7.33-2.4-15.3s0.92-10.76-2.12-19.39   c-3.04-8.63-7.74-13.67-17.34-19.67c-9.6-6-11.89-6.24-14.22-7.69c-2.33-1.46-2.81-2.87-9.76-2.48c-6.95,0.4-9.65,3.62-9.65,3.62   c6.44-0.37,17.31,4.05,17.31,4.05c-22.11,1.26-23.85-3.21-27.57-9.39c-3.72-6.18-5.63-12.25-7.69-16.55   c-2.06-4.3-4.61-10.59-11.84-12.89c-7.22-2.29-9.26,2.34-9.26,2.34c2.53,1.45,5.73,3.07,7.89,8.13c2.16,5.07-0.98,8.08-0.98,8.08   c0.92,3.84,1.74,8.81,4.89,10.07c5.33,2.13,10.07-2.72,10.07-2.72c-2.11,6.42-8.59,7.47-8.59,7.47   c2.39,12.61,8.02,17.19,10.32,19.07s6.73,5.1,6.73,5.1c2.46,0.41,7.49-5.98,7.49-5.98c-0.8,5.75-4.98,8.24-4.98,8.24   s0.58,0.7,3.59,3.26c3.01,2.56,5.43,4.92,9.03,11.59c3.6,6.68,3.92,8.38,8.31,15.89c4.39,7.51,8,9.63,9.81,11.77   s1.68,5.24,1.68,5.24l0.12,26.27l-2.78-0.08c0,0-0.04-20.56-0.04-24.63s-2.19-4.61-2.19-4.61l0.04,29.09   c-7.2,0-18.26-1.37-18.26-1.37l14.94-0.7l0.04-1.13l-19.16-1.49l19.2-0.47l-0.23-1.17l-14.35-0.98l14.54-0.55   c0,0-0.35-14.55-0.35-20.75c0-6.2-5.46-9.9-8.32-14.56c-2.86-4.66-2.5-6.27-5.32-11.74c-2.82-5.47-3.61-7.45-8.67-11.56   c-5.7-4.64-6.64-5.59-15.74-13.97c-7.32-6.74-9.02-19.95-9.02-19.95c-3.46-2.26-3.98-4.1-5.19-9.83s-3.87-8.26-3.87-8.26   c-19.13-6.28-16.44-21.95-16.44-21.95c-4.14-2.83-11.18-14.05-12.03-28.35C85.9,184.75,93.69,178.97,93.69,178.97z M136.71,109.04   c-4.22-0.78-7.86-0.56-14.3,4.09c-6.44,4.65-16.04,22.23-19.13,28.74c-3.69,7.78-13.89,27.47-2.22,39.13   c10.19,10.19,17.5-2.49,17.5-2.49c-6.59-9.29-7.99-20.91-1.2-36.99c6.79-16.08,16.75-22.5,20.87-25.47S140.93,109.82,136.71,109.04   z M198.89,70.67c-12.18,0-29.25,13.02-32.44,16.2c-3.73,3.73-7.48,7.81-13.7,9.28c-6.22,1.46-9.98,5.34-11.22,9.12l2.51,2.85   c0,0,2.5-3.72,10.47-7.48c7.97-3.76,8.98-5.61,12.2-7.62s6.39-1.29,8.26,0.15s2.85,2.79,7.08-1.92   c4.24-4.71,13.44-15.44,27.99-7.97c0,0-13.81-0.71-21.25,6.25c-7.44,6.96,1.67,5.31,5.12,4.38c3.44-0.93,12.5-3.75,21.53,1.52   C215.45,95.43,225.09,70.67,198.89,70.67z M214.4,100c-3.34-3.74-9.16-7.01-16.7-3.52c-7.55,3.49-9.99,1.96-9.99,1.96   c-3.09-0.99-5.98-2.46-7.99-1.32c-2.02,1.14-2.48,2.04-4.49,7.67c-3.18,8.89-10.88,14.11-10.88,14.11c6.87-2.83,15.88,1,15.88,1   s0.74-14.12,15.9-13.59c12.91,0.45,14.76-0.32,14.76-0.32c-2.02,6.05-9.39,2.68-13.67,3.28c-4.28,0.6-5.73,0.8-9.75,4.81   s-2.43,10.19-2.43,10.19c1.39-1.99,5.61-5.89,10.03-4.73c4.42,1.16,6.3,0.79,12.17-1.01c5.87-1.8,8.74,1.66,8.74,1.66   C220.48,110.53,217.74,103.74,214.4,100z M187.99,245.4c3.75,5.36,9.01,8.61,13.86,9.22c4.86,0.6,9.13-0.96,13.63-7.86   s1.68-22.78,1.68-22.78c-4.4,0.61-10.11,5.27-10.11,5.27s0.22,0.63,0.01,4.83c-0.17,3.49-2.65,5.51-6.04,5.51   c-4.7,0-5.92-5.56-6.55-8.14c-0.63-2.57-3.8-4.26-6.75-1.31S184.24,240.05,187.99,245.4z M218.06,172.26   c-6.01,0-10.22,4.19-10.22,4.19c5.12-1.29,6.72,4.58,8.99,3.35C219.11,178.57,218.06,172.26,218.06,172.26z M203.67,229.95   c-1.04-0.35-5.13,0.07-5.13,0.07s-1.01,5.61,2.52,5.48C204.59,235.38,203.67,229.95,203.67,229.95z M178.17,231.67   c5.58-4.02,10.21-9.67,11.12-18.61c0.91-8.93,5.46-9.8,5.46-9.8c-1.12,3.02-0.75,4.78-0.57,7.91c0.19,3.14,0.24,4.36-0.71,7.16   c-0.94,2.8,0.2,5.75,2.12,6.69c1.92,0.94,7.29,2.82,11.68-0.85c4.4-3.67,5.14-1.99,7.55-4.4c2.41-2.41,2.93-4.84,2.51-9.08   c-0.42-4.24-0.61-4.74-0.1-12.95c0.44-7.07-1.17-14.78-12.59-18.05c-11.42-3.27-19.17,1.76-19.17,1.76   c4.35-9.23,13.16-5.65,16.89-6.86c3.73-1.21,5.92-3.61,9.18-4.32c3.26-0.71,5.99-1.72,7.16-4.93c1.17-3.21-2.14-5.43-3.19-11.38   c-1.05-5.95,1.1-8.06,1.98-15.08c0.88-7.03-0.21-9.15-3.23-13.31c-3.02-4.16-7.3-3.5-9.96-2.66c-2.65,0.85-2.55,1.87-8.21,0.99   c-5.66-0.88-6.98,2.19-7.97,4.24c-0.99,2.06-1.61,4.32-3.49,4.32s-1.66-1.28-3.36-4.3c-1.7-3.02-8.07-7.59-18.11-3.86   c-14.31,5.32-18.28,8.64-27.14,19.1c-7.29,8.61-4.52,14.5-4.52,14.5c-11.07-11.07,13.36-29.82,19.3-33.33   c5.94-3.51,6.78-4.61,12.31-9.76s8.58-8.87,10.26-14.75s-4.56-5.23-7.71-2.94c-3.15,2.29-8.63,6.32-13.11,8.68   c-4.49,2.36-5.25,4.17-8.98,10.2c-3.73,6.03-5.93,5.06-12.97,13.06c-7.04,8-11.41,17.96-11.82,25.36   c-0.64,11.56,1.91,16.54,3.81,21.71c1.9,5.18,1.81,5.4,1.81,5.4c6.95,5.75,4.43,15.34,4.43,15.34c0-9.64-8.17-12.63-8.17-12.63   c-4.33,3.47-13.97,15.24-6.38,26.28c10.11,14.69,24.65,5.78,24.65,5.78c-3.94-3.2-2.71-8.48-2.71-8.48   c-2.17,0.84-5.93,0.53-5.93,0.53c-2.21,0-3.15-2.81-0.61-2.64c2.54,0.17,5.33-1.62,7.17-5.87c1.84-4.25,4.18-6.62,4.18-6.62   c-3.78-5.44-5.27-11.81-3.84-24.51c1.96-17.34,17.71-26.12,19.4-27.48c3.7-2.95,13.1-8.38,14.49-3.77   c1.29,4.24-3.78,2.6-13.72,10.78c-9.95,8.18-13.69,22.14-14.31,27.43c-0.35,3.03-2.12,14.19,6.96,15.71   c6.56,1.1,7.97-4.52,8.25-10.45s-0.73-10.62,4.25-20.68c4.98-10.06,16.6-9.17,16.6-9.17c3.07-4.22,8.53-7.05,13.66-7.82   c5.13-0.78,9.89-1.52,10.43-4.47s-5.35-2.3-5.59-5.03c-0.24-2.73,9.14-3.4,10.17,2.29c1.04,5.69-2.65,9.39-9.11,10.99   s-9.89,2.59-13.21,4.41c-3.32,1.81-3.86,5.94-1.91,8.13s8.16,1.67,11.8-0.47s10.13-3.2,9.85-0.16c-0.28,3.04-5.87,4.52-11.47,5.66   c-5.6,1.14-12.72,0.85-21.13,9.25c-8.4,8.4-9.4,16.35-12.22,24.32c-2.83,7.97-4.4,7.63-5.72,6.97c-1.31-0.66,1.16-7.5,1.16-7.5   c-4.97,1.51-10.96-1-10.96-1s-9.14,6.54-2.82,16.28c3.55,5.46,14.78,9.8,23.73,5.2c8.95-4.61,10.73-18.24,15.09-24.48   c4.36-6.24,17.11-6.99,22.85-0.06c5.75,6.93,0.44,14.9,0.44,14.9c2.08-11.84-7.76-14.59-7.76-14.59   c-6.48-2.59-13.26,3.19-15.09,8.07c-2.2,5.87-2.09,9.98-9.45,17.34c-12.26,12.26-28.93,0.88-28.93,0.88   c-2.08,2.9-8.95,4.82-8.95,4.82C153.37,242.35,172.59,235.7,178.17,231.67z M177.38,156.26c-16.06,3.73-9.67,16.78-9.67,16.78   c4.69-6.36,12.72-9.36,12.72-9.36C176.06,161.54,177.38,156.26,177.38,156.26z M174.1,264.57c8,3.1,23.73,8.52,30.55,22.78   c0,0,0.16-12.95-18-21.79c-14.89-7.25-17.43-16.55-20.21-23.82c0,0-12.28,1.36-19.84-2.97c0,0,4.33,5.18,7.66,8.17   c3.33,2.98,4.76,2.47,8.27,5.98C166.06,256.44,166.11,261.47,174.1,264.57z M150.31,266.12c4.14-3.53,13.29-4.27,13.29-4.27   c-6.17-16.76-20.07-7.53-20.07-7.53C146.04,264.64,150.31,266.12,150.31,266.12z M142.31,251.37c2.57-2.57,8.63-2.93,8.63-2.93   c-1-1.87-5.09-5.22-5.09-5.22c-2.83-0.7-7.84,0-7.84,0C139.3,245.28,142.31,251.37,142.31,251.37z M120.57,249.78   c0.92-7.82-6.46-11.32-6.46-11.32C114.71,244.22,120.57,249.78,120.57,249.78z M110.94,242.75c-2.19-3.15-1.04-7.74-1.04-7.74   c-3.66-0.9-6.62-3.75-6.62-3.75C103.28,239.9,110.94,242.75,110.94,242.75z M113.18,231.76c0,0,10.76-7.91,22.31,7.83   c0,0,3.22-1.94,6.19-1.51l-14.26-12.96c0,0-11.23-1.43-18.48-14.5c-5.46-9.84,0.15-19.68,0.15-19.68s-7.48,1.2-12.36-6.14   C96.72,184.81,80.1,211.65,113.18,231.76z" style="fill: #1E3A4E;"></path></svg> <svg y="459.13499450683594" viewBox="1.0099999904632568 6.889999866485596 226.77999877929688 15.730001449584961" x="174.10999336242676" height="15.730001449584961" width="226.77999877929688" xmlns="http://www.w3.org/2000/svg" style="overflow: visible;"><g fill="#1E3A4E" fill-opacity="1" style=""><path d="M8.95 22.48L8.95 22.48Q7.41 22.48 5.98 21.96Q4.55 21.43 3.43 20.45Q2.31 19.47 1.66 18.09Q1.01 16.72 1.01 15.05L1.01 15.05Q1.01 13.44 1.69 12.08Q2.38 10.71 3.56 9.70Q4.75 8.69 6.28 8.13Q7.81 7.57 9.50 7.57L9.50 7.57Q10.36 7.57 10.96 7.63Q11.55 7.70 12.11 7.82Q12.67 7.94 13.42 8.14L13.42 8.14Q13.75 8.23 13.89 8.40Q14.04 8.58 14.06 8.89L14.06 8.89Q14.10 9.39 14.17 9.98Q14.23 10.56 14.26 11.42L14.26 11.42Q14.28 11.57 14.11 11.67Q13.95 11.77 13.76 11.73Q13.57 11.68 13.51 11.44L13.51 11.44Q13.29 10.60 13.00 10.00Q12.72 9.39 12.14 9.00L12.14 9.00Q11.59 8.62 10.81 8.44Q10.03 8.25 9.13 8.25L9.13 8.25Q7.85 8.25 6.76 8.77Q5.68 9.28 4.89 10.18Q4.11 11.07 3.67 12.19Q3.23 13.31 3.23 14.52L3.23 14.52Q3.23 15.86 3.66 17.16Q4.09 18.46 4.89 19.50Q5.70 20.55 6.81 21.18Q7.92 21.80 9.28 21.80L9.28 21.80Q10.87 21.80 11.90 21.08Q12.94 20.35 13.66 19.05L13.66 19.05Q13.82 18.77 14.11 18.77Q14.41 18.77 14.41 19.12L14.41 19.12Q14.41 19.29 14.32 19.68Q14.23 20.06 14.09 20.49Q13.95 20.92 13.82 21.25L13.82 21.25Q13.66 21.56 13.56 21.65Q13.46 21.74 13.11 21.85L13.11 21.85Q12.30 22.18 11.16 22.33Q10.03 22.48 8.95 22.48ZM21.47 22.26L21.47 22.26Q21.19 22.26 21.01 22.19Q20.83 22.11 20.83 21.98L20.83 21.98Q20.83 21.76 21.54 21.63L21.54 21.63Q22.37 21.47 22.63 21.12Q22.88 20.77 22.88 19.98L22.88 19.98L22.88 10.03Q22.88 9.26 22.71 8.94Q22.55 8.62 21.71 8.47L21.71 8.47Q20.99 8.34 20.99 8.07L20.99 8.07Q20.99 7.94 21.14 7.87Q21.30 7.79 21.63 7.79L21.63 7.79Q22.22 7.79 22.55 7.81Q22.88 7.83 23.17 7.84Q23.45 7.85 23.89 7.85L23.89 7.85Q24.35 7.85 24.65 7.84Q24.95 7.83 25.29 7.81Q25.63 7.79 26.22 7.79L26.22 7.79Q26.86 7.79 26.86 8.07L26.86 8.07Q26.86 8.23 26.69 8.32Q26.51 8.40 26.14 8.47L26.14 8.47Q25.32 8.62 24.98 9.01Q24.64 9.39 24.64 10.03L24.64 10.03L24.64 14.37Q24.64 14.50 24.75 14.53Q24.86 14.56 24.95 14.56L24.95 14.56L33.11 14.56Q33.26 14.56 33.26 14.30L33.26 14.30L33.26 10.01Q33.26 9.42 32.96 9.02Q32.65 8.62 31.81 8.47L31.81 8.47Q31.44 8.40 31.26 8.32Q31.09 8.23 31.09 8.07L31.09 8.07Q31.09 7.79 31.72 7.79L31.72 7.79Q32.32 7.79 32.70 7.81Q33.09 7.83 33.44 7.84Q33.79 7.85 34.28 7.85L34.28 7.85Q34.67 7.85 34.89 7.84Q35.11 7.83 35.40 7.81Q35.68 7.79 36.28 7.79L36.28 7.79Q36.59 7.79 36.75 7.87Q36.92 7.94 36.92 8.07L36.92 8.07Q36.92 8.34 36.19 8.47L36.19 8.47Q35.38 8.62 35.20 9.00Q35.02 9.37 35.02 10.01L35.02 10.01L35.02 19.95Q35.02 20.77 35.23 21.12Q35.44 21.47 36.26 21.63L36.26 21.63Q36.96 21.76 36.96 21.98L36.96 21.98Q36.96 22.11 36.78 22.19Q36.61 22.26 36.32 22.26L36.32 22.26Q35.73 22.26 35.40 22.23Q35.07 22.20 34.78 22.18Q34.50 22.15 34.03 22.15L34.03 22.15Q33.57 22.15 33.27 22.18Q32.98 22.20 32.63 22.23Q32.27 22.26 31.68 22.26L31.68 22.26Q31.39 22.26 31.22 22.19Q31.04 22.11 31.04 21.98L31.04 21.98Q31.04 21.82 31.21 21.76Q31.37 21.69 31.75 21.63L31.75 21.63Q32.45 21.49 32.86 21.11Q33.26 20.72 33.26 20.02L33.26 20.02L33.26 15.73Q33.26 15.62 33.26 15.51Q33.26 15.40 33.15 15.40L33.15 15.40L24.75 15.40Q24.64 15.40 24.64 15.64L24.64 15.64L24.64 19.82Q24.64 20.50 25.15 21.00Q25.65 21.49 26.40 21.63L26.40 21.63Q26.77 21.69 26.94 21.76Q27.10 21.82 27.10 21.98L27.10 21.98Q27.10 22.11 26.93 22.19Q26.75 22.26 26.47 22.26L26.47 22.26Q25.87 22.26 25.49 22.23Q25.10 22.20 24.75 22.18Q24.40 22.15 23.89 22.15L23.89 22.15Q23.43 22.15 23.11 22.18Q22.79 22.20 22.43 22.23Q22.07 22.26 21.47 22.26ZM43.30 22.26L43.30 22.26Q43.01 22.26 42.83 22.21Q42.66 22.15 42.66 22.02L42.66 22.02Q42.66 21.76 43.38 21.63L43.38 21.63Q44.22 21.47 44.66 21.12Q45.10 20.77 45.10 20.00L45.10 20.00L45.10 10.05Q45.10 9.28 44.78 8.95Q44.46 8.62 43.63 8.47L43.63 8.47Q42.90 8.34 42.90 8.03L42.90 8.03Q42.90 7.90 43.08 7.84Q43.25 7.79 43.54 7.79L43.54 7.79Q44.13 7.79 44.52 7.81Q44.90 7.83 45.25 7.84Q45.61 7.85 46.11 7.85L46.11 7.85Q46.60 7.85 46.90 7.84Q47.21 7.83 47.56 7.81Q47.92 7.79 48.51 7.79L48.51 7.79Q48.80 7.79 48.97 7.84Q49.15 7.90 49.15 8.03L49.15 8.03Q49.15 8.18 48.97 8.29Q48.80 8.40 48.42 8.47L48.42 8.47Q47.61 8.62 47.23 8.95Q46.86 9.28 46.86 10.05L46.86 10.05L46.86 20.00Q46.86 20.77 47.32 21.12Q47.78 21.47 48.60 21.63L48.60 21.63Q48.97 21.69 49.15 21.78Q49.32 21.87 49.32 22.02L49.32 22.02Q49.32 22.15 49.15 22.21Q48.97 22.26 48.69 22.26L48.69 22.26Q48.09 22.26 47.71 22.23Q47.32 22.20 46.97 22.18Q46.62 22.15 46.11 22.15L46.11 22.15Q45.56 22.15 45.16 22.18Q44.75 22.20 44.32 22.23Q43.89 22.26 43.30 22.26ZM68.13 22.62L68.13 22.62Q67.52 22.62 66.97 22.52Q66.42 22.42 65.96 22.15Q65.49 21.89 65.10 21.43L65.10 21.43Q64.57 20.77 64.09 20.16Q63.60 19.56 63.06 18.77Q62.52 17.97 61.75 16.74L61.75 16.74Q61.42 16.19 60.81 15.88L60.81 15.88Q60.32 15.64 59.85 15.54Q59.38 15.44 59.07 15.42L59.07 15.42Q58.89 15.40 58.82 15.53Q58.74 15.66 58.74 15.86L58.74 15.86L58.74 19.73Q58.74 20.44 59.07 20.95Q59.40 21.47 60.21 21.63L60.21 21.63Q60.59 21.69 60.76 21.78Q60.94 21.87 60.94 22.02L60.94 22.02Q60.94 22.15 60.76 22.21Q60.59 22.26 60.30 22.26L60.30 22.26Q59.71 22.26 59.39 22.22Q59.07 22.18 58.82 22.14Q58.56 22.11 58.15 22.11L58.15 22.11Q57.60 22.11 57.17 22.14Q56.74 22.18 56.31 22.22Q55.88 22.26 55.29 22.26L55.29 22.26Q55 22.26 54.82 22.21Q54.65 22.15 54.65 22.02L54.65 22.02Q54.65 21.76 55.37 21.63L55.37 21.63Q56.21 21.47 56.59 21.12Q56.98 20.77 56.98 19.95L56.98 19.95L56.98 10.58Q56.98 9.75 56.90 9.32Q56.83 8.89 56.55 8.71Q56.28 8.54 55.64 8.47L55.64 8.47Q55.26 8.43 55.09 8.31Q54.91 8.18 54.91 8.03L54.91 8.03Q54.91 7.90 55.09 7.84Q55.26 7.79 55.55 7.79L55.55 7.79Q56.14 7.79 56.44 7.79Q56.74 7.79 57.00 7.80Q57.27 7.81 57.71 7.81L57.71 7.81Q58.12 7.81 58.45 7.78Q58.78 7.74 59.19 7.72Q59.60 7.70 60.24 7.70L60.24 7.70Q62.66 7.70 63.92 8.60Q65.19 9.50 65.19 11.31L65.19 11.31Q65.19 12.30 64.79 13.01Q64.39 13.73 63.80 14.21Q63.21 14.70 62.59 15.00L62.59 15.00Q62.50 15.03 62.51 15.10Q62.52 15.18 62.59 15.29L62.59 15.29Q63.27 16.32 63.90 17.25Q64.53 18.17 65.27 19.05Q66.02 19.93 67.06 20.88L67.06 20.88Q67.63 21.38 68.22 21.49Q68.82 21.60 69.59 21.60L69.59 21.60Q69.92 21.60 69.92 21.85L69.92 21.85Q69.92 22.18 69.59 22.34Q69.26 22.51 68.84 22.56Q68.42 22.62 68.13 22.62ZM59.91 14.92L59.91 14.92Q60.92 14.92 61.65 14.45Q62.39 13.99 62.80 13.24Q63.21 12.50 63.21 11.66L63.21 11.66Q63.21 10.76 62.97 10.01Q62.74 9.26 62.05 8.81Q61.36 8.36 59.97 8.36L59.97 8.36Q59.27 8.36 59.05 8.81Q58.83 9.26 58.78 10.41L58.78 10.41Q58.76 10.96 58.75 11.89Q58.74 12.83 58.74 14.15L58.74 14.15Q58.74 14.70 59.05 14.81Q59.36 14.92 59.91 14.92ZM82.50 22.46L82.50 22.46Q81.05 22.46 79.73 21.95Q78.41 21.43 77.40 20.47Q76.38 19.51 75.79 18.18Q75.20 16.85 75.20 15.22L75.20 15.22Q75.20 13.73 75.68 12.35Q76.16 10.98 77.11 9.90Q78.06 8.82 79.46 8.18Q80.87 7.55 82.70 7.55L82.70 7.55Q84.15 7.55 85.47 8.06Q86.79 8.58 87.80 9.54Q88.81 10.49 89.41 11.83Q90.00 13.16 90.00 14.78L90.00 14.78Q90.00 16.26 89.52 17.64Q89.03 19.03 88.09 20.11Q87.14 21.19 85.73 21.82Q84.33 22.46 82.50 22.46ZM82.83 21.58L82.83 21.58Q84.52 21.58 85.65 20.87Q86.77 20.15 87.33 18.87Q87.89 17.58 87.89 15.86L87.89 15.86Q87.89 14.34 87.54 13.00Q87.19 11.66 86.49 10.64Q85.80 9.61 84.77 9.04Q83.73 8.47 82.35 8.47L82.35 8.47Q80.70 8.47 79.57 9.17Q78.45 9.88 77.88 11.14Q77.31 12.41 77.31 14.12L77.31 14.12Q77.31 15.66 77.65 17.01Q77.99 18.35 78.68 19.38Q79.38 20.42 80.41 21.00Q81.44 21.58 82.83 21.58ZM96.56 22.26L96.56 22.26Q96.27 22.26 96.10 22.21Q95.92 22.15 95.92 22.02L95.92 22.02Q95.92 21.76 96.65 21.63L96.65 21.63Q97.48 21.47 97.87 21.12Q98.25 20.77 98.25 19.95L98.25 19.95L98.25 10.67Q98.25 9.68 98.00 9.15Q97.75 8.62 96.91 8.47L96.91 8.47Q96.54 8.40 96.36 8.29Q96.18 8.18 96.18 8.03L96.18 8.03Q96.18 7.90 96.36 7.84Q96.54 7.79 96.82 7.79L96.82 7.79Q97.42 7.79 97.71 7.79Q98.01 7.79 98.27 7.80Q98.54 7.81 98.98 7.81L98.98 7.81Q99.42 7.81 99.87 7.78Q100.32 7.74 100.72 7.71Q101.11 7.68 101.42 7.68L101.42 7.68Q103.93 7.68 105.46 8.71Q106.99 9.75 106.99 11.59L106.99 11.59Q106.99 12.94 106.46 14.07Q105.93 15.20 104.84 15.88Q103.75 16.57 102.06 16.57L102.06 16.57Q101.57 16.57 101.32 16.42Q101.07 16.28 101.07 16.15L101.07 16.15Q101.07 16.06 101.19 15.95Q101.31 15.84 101.42 15.84L101.42 15.84Q101.53 15.84 101.76 15.86Q101.99 15.88 102.43 15.88L102.43 15.88Q103.75 15.88 104.42 14.78Q105.09 13.68 105.09 11.75L105.09 11.75Q105.09 9.99 104.06 9.14Q103.03 8.29 101.42 8.29L101.42 8.29Q100.80 8.29 100.41 8.50Q100.01 8.71 100.01 9.22L100.01 9.22L100.01 19.71Q100.01 20.50 100.34 20.99Q100.67 21.47 101.49 21.63L101.49 21.63Q101.86 21.69 102.04 21.78Q102.21 21.87 102.21 22.02L102.21 22.02Q102.21 22.15 102.04 22.21Q101.86 22.26 101.57 22.26L101.57 22.26Q100.98 22.26 100.66 22.22Q100.34 22.18 100.09 22.14Q99.84 22.11 99.42 22.11L99.42 22.11Q98.87 22.11 98.44 22.14Q98.01 22.18 97.58 22.22Q97.15 22.26 96.56 22.26ZM125.95 22.62L125.95 22.62Q125.33 22.62 124.78 22.52Q124.23 22.42 123.77 22.15Q123.31 21.89 122.91 21.43L122.91 21.43Q122.39 20.77 121.90 20.16Q121.42 19.56 120.88 18.77Q120.34 17.97 119.57 16.74L119.57 16.74Q119.24 16.19 118.62 15.88L118.62 15.88Q118.14 15.64 117.67 15.54Q117.19 15.44 116.89 15.42L116.89 15.42Q116.71 15.40 116.63 15.53Q116.56 15.66 116.56 15.86L116.56 15.86L116.56 19.73Q116.56 20.44 116.89 20.95Q117.22 21.47 118.03 21.63L118.03 21.63Q118.40 21.69 118.58 21.78Q118.76 21.87 118.76 22.02L118.76 22.02Q118.76 22.15 118.58 22.21Q118.40 22.26 118.12 22.26L118.12 22.26Q117.52 22.26 117.21 22.22Q116.89 22.18 116.63 22.14Q116.38 22.11 115.96 22.11L115.96 22.11Q115.41 22.11 114.98 22.14Q114.55 22.18 114.13 22.22Q113.70 22.26 113.10 22.26L113.10 22.26Q112.82 22.26 112.64 22.21Q112.46 22.15 112.46 22.02L112.46 22.02Q112.46 21.76 113.19 21.63L113.19 21.63Q114.03 21.47 114.41 21.12Q114.80 20.77 114.80 19.95L114.80 19.95L114.80 10.58Q114.80 9.75 114.72 9.32Q114.64 8.89 114.37 8.71Q114.09 8.54 113.45 8.47L113.45 8.47Q113.08 8.43 112.90 8.31Q112.73 8.18 112.73 8.03L112.73 8.03Q112.73 7.90 112.90 7.84Q113.08 7.79 113.37 7.79L113.37 7.79Q113.96 7.79 114.26 7.79Q114.55 7.79 114.82 7.80Q115.08 7.81 115.52 7.81L115.52 7.81Q115.94 7.81 116.27 7.78Q116.60 7.74 117.01 7.72Q117.41 7.70 118.05 7.70L118.05 7.70Q120.47 7.70 121.74 8.60Q123.00 9.50 123.00 11.31L123.00 11.31Q123.00 12.30 122.61 13.01Q122.21 13.73 121.62 14.21Q121.02 14.70 120.41 15.00L120.41 15.00Q120.32 15.03 120.33 15.10Q120.34 15.18 120.41 15.29L120.41 15.29Q121.09 16.32 121.72 17.25Q122.34 18.17 123.09 19.05Q123.84 19.93 124.87 20.88L124.87 20.88Q125.44 21.38 126.04 21.49Q126.63 21.60 127.40 21.60L127.40 21.60Q127.73 21.60 127.73 21.85L127.73 21.85Q127.73 22.18 127.40 22.34Q127.07 22.51 126.65 22.56Q126.24 22.62 125.95 22.62ZM117.72 14.92L117.72 14.92Q118.73 14.92 119.47 14.45Q120.21 13.99 120.62 13.24Q121.02 12.50 121.02 11.66L121.02 11.66Q121.02 10.76 120.79 10.01Q120.56 9.26 119.87 8.81Q119.17 8.36 117.79 8.36L117.79 8.36Q117.08 8.36 116.86 8.81Q116.64 9.26 116.60 10.41L116.60 10.41Q116.58 10.96 116.57 11.89Q116.56 12.83 116.56 14.15L116.56 14.15Q116.56 14.70 116.86 14.81Q117.17 14.92 117.72 14.92ZM132.62 22.26L132.62 22.26Q132.33 22.26 132.15 22.19Q131.98 22.11 131.98 21.98L131.98 21.98Q131.98 21.82 132.17 21.70Q132.35 21.58 132.70 21.47L132.70 21.47Q133.28 21.30 133.76 20.94Q134.24 20.59 134.60 19.78L134.60 19.78Q135.21 18.37 135.73 17.14Q136.25 15.91 136.71 14.72Q137.17 13.53 137.67 12.24Q138.16 10.96 138.71 9.44L138.71 9.44Q138.82 9.13 138.91 8.82Q139.00 8.51 139.02 8.16L139.02 8.16Q139.22 8.10 139.41 8.03Q139.61 7.96 139.81 7.83L139.81 7.83Q140.01 7.70 140.09 7.44Q140.16 7.17 140.23 7.08L140.23 7.08Q140.25 7.06 140.28 7.06Q140.32 7.06 140.34 7.11L140.34 7.11Q140.38 7.19 140.42 7.33Q140.45 7.46 140.49 7.59L140.49 7.59Q141.02 9.26 141.59 11Q142.16 12.74 142.70 14.36Q143.24 15.97 143.69 17.26Q144.14 18.55 144.41 19.34L144.41 19.34Q144.72 20.22 145.07 20.66Q145.42 21.10 145.81 21.27Q146.19 21.45 146.63 21.54L146.63 21.54Q147.00 21.60 147.18 21.75Q147.36 21.89 147.36 22.04L147.36 22.04Q147.36 22.18 147.18 22.22Q147.00 22.26 146.72 22.26L146.72 22.26Q146.41 22.26 145.88 22.23Q145.35 22.20 144.76 22.16Q144.17 22.13 143.66 22.13L143.66 22.13Q143.24 22.13 142.80 22.13Q142.36 22.13 141.99 22.14Q141.61 22.15 141.35 22.15L141.35 22.15Q141.06 22.15 140.89 22.09Q140.71 22.02 140.71 21.89L140.71 21.89Q140.71 21.74 140.93 21.63Q141.15 21.52 141.44 21.47L141.44 21.47Q142.16 21.36 142.47 21.10Q142.78 20.83 142.78 20.48L142.78 20.48Q142.78 20.15 142.64 19.52Q142.49 18.90 142.30 18.18Q142.10 17.47 141.92 16.92L141.92 16.92Q141.88 16.74 141.76 16.71Q141.64 16.68 141.33 16.68L141.33 16.68L137.17 16.68Q137.08 16.68 136.98 16.75Q136.88 16.83 136.80 17.07L136.80 17.07Q136.73 17.29 136.58 17.77Q136.42 18.24 136.27 18.77Q136.11 19.29 136.00 19.71Q135.89 20.13 135.89 20.24L135.89 20.24Q135.89 20.72 136.27 21.04Q136.64 21.36 137.17 21.49L137.17 21.49Q137.90 21.69 137.90 21.93L137.90 21.93Q137.90 22.07 137.72 22.12Q137.54 22.18 137.26 22.18L137.26 22.18Q136.97 22.18 136.42 22.15Q135.87 22.13 135.26 22.13L135.26 22.13Q134.53 22.13 133.85 22.20Q133.17 22.26 132.62 22.26ZM137.76 15.95L137.76 15.95L141.17 15.95Q141.48 15.95 141.48 15.84L141.48 15.84Q141.48 15.80 141.47 15.74Q141.46 15.69 141.44 15.62L141.44 15.62L139.72 10.25Q139.59 9.86 139.52 9.86L139.52 9.86Q139.48 9.86 139.35 10.23L139.35 10.23L137.35 15.62Q137.30 15.75 137.30 15.80L137.30 15.80Q137.30 15.91 137.42 15.93Q137.54 15.95 137.76 15.95ZM160.60 22.48L160.60 22.48Q159.06 22.48 157.63 21.96Q156.20 21.43 155.08 20.45Q153.96 19.47 153.31 18.09Q152.66 16.72 152.66 15.05L152.66 15.05Q152.66 13.44 153.34 12.08Q154.02 10.71 155.21 9.70Q156.40 8.69 157.93 8.13Q159.46 7.57 161.15 7.57L161.15 7.57Q162.01 7.57 162.60 7.63Q163.20 7.70 163.76 7.82Q164.32 7.94 165.07 8.14L165.07 8.14Q165.40 8.23 165.54 8.40Q165.68 8.58 165.70 8.89L165.70 8.89Q165.75 9.39 165.81 9.98Q165.88 10.56 165.90 11.42L165.90 11.42Q165.92 11.57 165.76 11.67Q165.59 11.77 165.41 11.73Q165.22 11.68 165.15 11.44L165.15 11.44Q164.93 10.60 164.65 10.00Q164.36 9.39 163.79 9.00L163.79 9.00Q163.24 8.62 162.46 8.44Q161.68 8.25 160.78 8.25L160.78 8.25Q159.50 8.25 158.41 8.77Q157.32 9.28 156.54 10.18Q155.76 11.07 155.32 12.19Q154.88 13.31 154.88 14.52L154.88 14.52Q154.88 15.86 155.31 17.16Q155.74 18.46 156.54 19.50Q157.34 20.55 158.46 21.18Q159.57 21.80 160.93 21.80L160.93 21.80Q162.51 21.80 163.55 21.08Q164.58 20.35 165.31 19.05L165.31 19.05Q165.46 18.77 165.76 18.77Q166.06 18.77 166.06 19.12L166.06 19.12Q166.06 19.29 165.97 19.68Q165.88 20.06 165.74 20.49Q165.59 20.92 165.46 21.25L165.46 21.25Q165.31 21.56 165.21 21.65Q165.11 21.74 164.76 21.85L164.76 21.85Q163.94 22.18 162.81 22.33Q161.68 22.48 160.60 22.48ZM176.37 22.26L176.37 22.26Q176.09 22.26 175.91 22.21Q175.74 22.15 175.74 22.02L175.74 22.02Q175.74 21.87 175.91 21.78Q176.09 21.69 176.46 21.63L176.46 21.63Q177.30 21.47 177.74 21.09Q178.18 20.70 178.18 19.91L178.18 19.91L178.18 11.37Q178.18 10.36 178.13 9.82Q178.09 9.28 177.99 9.06Q177.89 8.84 177.72 8.82L177.72 8.82Q177.41 8.76 177.07 8.75Q176.73 8.73 176.15 8.73L176.15 8.73L175.12 8.73Q174.59 8.73 174.08 8.94Q173.56 9.15 173.32 9.59L173.32 9.59Q173.25 9.70 173.10 9.91Q172.94 10.12 172.77 10.27Q172.59 10.43 172.41 10.43L172.41 10.43Q172.33 10.43 172.29 10.34Q172.26 10.25 172.26 10.14L172.26 10.14Q172.26 9.92 172.37 9.70L172.37 9.70Q172.68 9.06 172.82 8.57Q172.96 8.07 173.05 7.39L173.05 7.39Q173.10 7.02 173.22 6.95Q173.34 6.89 173.43 6.89L173.43 6.89Q173.51 6.89 173.70 7.15Q173.89 7.41 173.98 7.59L173.98 7.59Q174.11 7.81 174.58 7.92Q175.05 8.03 175.52 8.03L175.52 8.03L183.26 8.03Q184.03 8.03 184.51 7.94Q185.00 7.85 185.35 7.70L185.35 7.70Q185.61 7.57 185.78 7.41Q185.94 7.26 186.21 7.26L186.21 7.26Q186.27 7.26 186.32 7.43Q186.36 7.59 186.36 7.77L186.36 7.77Q186.36 7.88 186.33 8.07Q186.30 8.27 186.27 8.38L186.27 8.38Q186.21 8.78 186.15 8.95Q186.10 9.13 186.08 9.26Q186.05 9.39 186.05 9.68L186.05 9.68L186.05 9.94Q186.05 10.14 185.97 10.40Q185.88 10.65 185.70 10.65L185.70 10.65Q185.55 10.65 185.46 10.41Q185.37 10.16 185.28 9.75L185.28 9.75Q185.20 9.28 184.76 9.01Q184.32 8.73 183.26 8.73L183.26 8.73L181.04 8.73Q180.55 8.73 180.31 8.87Q180.07 9.00 180.00 9.53Q179.94 10.05 179.94 11.26L179.94 11.26L179.94 19.91Q179.94 20.70 180.40 21.09Q180.86 21.47 181.68 21.63L181.68 21.63Q182.05 21.69 182.23 21.78Q182.40 21.87 182.40 22.02L182.40 22.02Q182.40 22.15 182.23 22.21Q182.05 22.26 181.76 22.26L181.76 22.26Q181.17 22.26 180.79 22.23Q180.40 22.20 180.05 22.18Q179.70 22.15 179.19 22.15L179.19 22.15Q178.64 22.15 178.23 22.18Q177.83 22.20 177.40 22.23Q176.97 22.26 176.37 22.26ZM199.10 22.46L199.10 22.46Q197.65 22.46 196.33 21.95Q195.01 21.43 194.00 20.47Q192.98 19.51 192.39 18.18Q191.80 16.85 191.80 15.22L191.80 15.22Q191.80 13.73 192.28 12.35Q192.76 10.98 193.71 9.90Q194.66 8.82 196.06 8.18Q197.47 7.55 199.30 7.55L199.30 7.55Q200.75 7.55 202.07 8.06Q203.39 8.58 204.40 9.54Q205.41 10.49 206.01 11.83Q206.60 13.16 206.60 14.78L206.60 14.78Q206.60 16.26 206.12 17.64Q205.63 19.03 204.69 20.11Q203.74 21.19 202.33 21.82Q200.93 22.46 199.10 22.46ZM199.43 21.58L199.43 21.58Q201.12 21.58 202.25 20.87Q203.37 20.15 203.93 18.87Q204.49 17.58 204.49 15.86L204.49 15.86Q204.49 14.34 204.14 13.00Q203.79 11.66 203.09 10.64Q202.40 9.61 201.37 9.04Q200.33 8.47 198.95 8.47L198.95 8.47Q197.30 8.47 196.17 9.17Q195.05 9.88 194.48 11.14Q193.91 12.41 193.91 14.12L193.91 14.12Q193.91 15.66 194.25 17.01Q194.59 18.35 195.28 19.38Q195.98 20.42 197.01 21.00Q198.04 21.58 199.43 21.58ZM226.01 22.62L226.01 22.62Q225.39 22.62 224.84 22.52Q224.29 22.42 223.83 22.15Q223.37 21.89 222.97 21.43L222.97 21.43Q222.44 20.77 221.96 20.16Q221.47 19.56 220.94 18.77Q220.40 17.97 219.63 16.74L219.63 16.74Q219.30 16.19 218.68 15.88L218.68 15.88Q218.20 15.64 217.72 15.54Q217.25 15.44 216.94 15.42L216.94 15.42Q216.77 15.40 216.69 15.53Q216.61 15.66 216.61 15.86L216.61 15.86L216.61 19.73Q216.61 20.44 216.94 20.95Q217.27 21.47 218.09 21.63L218.09 21.63Q218.46 21.69 218.64 21.78Q218.81 21.87 218.81 22.02L218.81 22.02Q218.81 22.15 218.64 22.21Q218.46 22.26 218.17 22.26L218.17 22.26Q217.58 22.26 217.26 22.22Q216.94 22.18 216.69 22.14Q216.44 22.11 216.02 22.11L216.02 22.11Q215.47 22.11 215.04 22.14Q214.61 22.18 214.18 22.22Q213.75 22.26 213.16 22.26L213.16 22.26Q212.87 22.26 212.70 22.21Q212.52 22.15 212.52 22.02L212.52 22.02Q212.52 21.76 213.25 21.63L213.25 21.63Q214.08 21.47 214.47 21.12Q214.85 20.77 214.85 19.95L214.85 19.95L214.85 10.58Q214.85 9.75 214.78 9.32Q214.70 8.89 214.42 8.71Q214.15 8.54 213.51 8.47L213.51 8.47Q213.14 8.43 212.96 8.31Q212.78 8.18 212.78 8.03L212.78 8.03Q212.78 7.90 212.96 7.84Q213.14 7.79 213.42 7.79L213.42 7.79Q214.02 7.79 214.31 7.79Q214.61 7.79 214.87 7.80Q215.14 7.81 215.58 7.81L215.58 7.81Q216.00 7.81 216.33 7.78Q216.66 7.74 217.06 7.72Q217.47 7.70 218.11 7.70L218.11 7.70Q220.53 7.70 221.79 8.60Q223.06 9.50 223.06 11.31L223.06 11.31Q223.06 12.30 222.66 13.01Q222.27 13.73 221.67 14.21Q221.08 14.70 220.46 15.00L220.46 15.00Q220.37 15.03 220.39 15.10Q220.40 15.18 220.46 15.29L220.46 15.29Q221.14 16.32 221.77 17.25Q222.40 18.17 223.15 19.05Q223.89 19.93 224.93 20.88L224.93 20.88Q225.50 21.38 226.09 21.49Q226.69 21.60 227.46 21.60L227.46 21.60Q227.79 21.60 227.79 21.85L227.79 21.85Q227.79 22.18 227.46 22.34Q227.13 22.51 226.71 22.56Q226.29 22.62 226.01 22.62ZM217.78 14.92L217.78 14.92Q218.79 14.92 219.53 14.45Q220.26 13.99 220.67 13.24Q221.08 12.50 221.08 11.66L221.08 11.66Q221.08 10.76 220.85 10.01Q220.62 9.26 219.92 8.81Q219.23 8.36 217.84 8.36L217.84 8.36Q217.14 8.36 216.92 8.81Q216.70 9.26 216.66 10.41L216.66 10.41Q216.63 10.96 216.62 11.89Q216.61 12.83 216.61 14.15L216.61 14.15Q216.61 14.70 216.92 14.81Q217.23 14.92 217.78 14.92Z" transform="translate(0, 0)"></path></g></svg> <svg y="396.7249945068359" viewBox="0.5600000023841858 16.25 532.030029296875 48.970001220703125" x="21.48498481750488" height="48.970001220703125" width="532.030029296875" xmlns="http://www.w3.org/2000/svg" style="overflow: visible;"><g fill="#1E3A4E" fill-opacity="1" style=""><path d="M22.97 27.19L22.97 63.03L14.03 63.03L14.03 27.19L0.56 27.19L0.56 18.22L36.41 18.22L36.41 27.19L22.97 27.19ZM48.78 43.91L48.78 63.03L40.25 63.03L40.25 16.25L48.78 16.25L48.78 31.03Q50.31 29.88 51.94 29.39Q53.56 28.91 55.25 28.91L55.25 28.91Q58.34 28.91 61.06 30.08Q63.78 31.25 65.80 33.30Q67.81 35.34 68.98 38.08Q70.16 40.81 70.16 43.91L70.16 43.91L70.16 63.03L61.56 63.03L61.56 43.91L61.63 43.91Q61.63 42.59 61.13 41.42Q60.63 40.25 59.75 39.38Q58.88 38.50 57.72 38Q56.56 37.50 55.25 37.50L55.25 37.50Q53.91 37.50 52.72 38Q51.53 38.50 50.66 39.38Q49.78 40.25 49.28 41.42Q48.78 42.59 48.78 43.91L48.78 43.91ZM105.53 35.56L89.53 54.84Q90.03 55 90.53 55.05Q91.03 55.09 91.53 55.09L91.53 55.09Q92.78 55.09 93.94 54.75Q95.09 54.41 96.11 53.77Q97.13 53.13 97.92 52.20Q98.72 51.28 99.22 50.16L99.22 50.16L105.47 56.44Q104.28 58.13 102.73 59.47Q101.19 60.81 99.39 61.75Q97.59 62.69 95.61 63.17Q93.63 63.66 91.53 63.66L91.53 63.66Q88 63.66 84.89 62.34Q81.78 61.03 79.45 58.69Q77.13 56.34 75.78 53.11Q74.44 49.88 74.44 46L74.44 46Q74.44 42.03 75.78 38.75Q77.13 35.47 79.45 33.16Q81.78 30.84 84.89 29.56Q88 28.28 91.53 28.28L91.53 28.28Q93.63 28.28 95.63 28.78Q97.63 29.28 99.42 30.22Q101.22 31.16 102.78 32.52Q104.34 33.88 105.53 35.56L105.53 35.56ZM83.97 50.44L93.91 37.25Q93.31 37.03 92.73 36.97Q92.16 36.91 91.53 36.91L91.53 36.91Q89.78 36.91 88.23 37.55Q86.69 38.19 85.55 39.38Q84.41 40.56 83.75 42.23Q83.09 43.91 83.09 46L83.09 46Q83.09 46.47 83.14 47.06Q83.19 47.66 83.30 48.27Q83.41 48.88 83.56 49.44Q83.72 50 83.97 50.44L83.97 50.44ZM146.56 49.59L146.56 49.59Q146.56 52.38 145.50 54.81Q144.44 57.25 142.61 59.08Q140.78 60.91 138.34 61.97Q135.91 63.03 133.13 63.03L133.13 63.03L110.72 63.03L110.72 18.22L133.13 18.22Q135.91 18.22 138.34 19.28Q140.78 20.34 142.61 22.17Q144.44 24 145.50 26.44Q146.56 28.88 146.56 31.66L146.56 31.66Q146.56 32.91 146.22 34.22Q145.88 35.53 145.25 36.75Q144.63 37.97 143.75 38.97Q142.88 39.97 141.81 40.63L141.81 40.63Q142.91 41.22 143.78 42.23Q144.66 43.25 145.28 44.47Q145.91 45.69 146.23 47.02Q146.56 48.34 146.56 49.59ZM119.69 45.13L119.69 54.06L133.13 54.06Q134.06 54.06 134.88 53.72Q135.69 53.38 136.30 52.77Q136.91 52.16 137.25 51.34Q137.59 50.53 137.59 49.59L137.59 49.59Q137.59 48.66 137.25 47.84Q136.91 47.03 136.30 46.42Q135.69 45.81 134.88 45.47Q134.06 45.13 133.13 45.13L133.13 45.13L119.69 45.13ZM119.69 27.19L119.69 36.16L133.13 36.16Q134.06 36.16 134.88 35.81Q135.69 35.47 136.30 34.86Q136.91 34.25 137.25 33.42Q137.59 32.59 137.59 31.66L137.59 31.66Q137.59 30.72 137.25 29.91Q136.91 29.09 136.30 28.48Q135.69 27.88 134.88 27.53Q134.06 27.19 133.13 27.19L133.13 27.19L119.69 27.19ZM184.84 29.63L184.84 63.03L182.78 63.03L179.47 58.44Q178.25 59.53 176.89 60.48Q175.53 61.44 174.03 62.14Q172.53 62.84 170.95 63.25Q169.38 63.66 167.75 63.66L167.75 63.66Q164.22 63.66 161.11 62.47Q158 61.28 155.67 59.02Q153.34 56.75 152 53.47Q150.66 50.19 150.66 46L150.66 46Q150.66 42.09 152 38.83Q153.34 35.56 155.67 33.22Q158 30.88 161.11 29.58Q164.22 28.28 167.75 28.28L167.75 28.28Q169.38 28.28 170.97 28.69Q172.56 29.09 174.06 29.81Q175.56 30.53 176.92 31.50Q178.28 32.47 179.47 33.59L179.47 33.59L182.78 29.63L184.84 29.63ZM176.25 46L176.25 46Q176.25 44.25 175.58 42.61Q174.91 40.97 173.75 39.70Q172.59 38.44 171.05 37.67Q169.50 36.91 167.75 36.91L167.75 36.91Q166 36.91 164.45 37.50Q162.91 38.09 161.77 39.25Q160.63 40.41 159.97 42.11Q159.31 43.81 159.31 46L159.31 46Q159.31 48.19 159.97 49.89Q160.63 51.59 161.77 52.75Q162.91 53.91 164.45 54.50Q166 55.09 167.75 55.09L167.75 55.09Q169.50 55.09 171.05 54.33Q172.59 53.56 173.75 52.30Q174.91 51.03 175.58 49.39Q176.25 47.75 176.25 46ZM220.59 36.22L220.59 36.22L214.34 42.50Q213.88 41.19 213.06 40.14Q212.25 39.09 211.23 38.38Q210.22 37.66 209.03 37.28Q207.84 36.91 206.59 36.91L206.59 36.91Q204.84 36.91 203.30 37.63Q201.75 38.34 200.61 39.64Q199.47 40.94 198.81 42.72Q198.16 44.50 198.16 46.66L198.16 46.66Q198.16 48.41 198.81 49.94Q199.47 51.47 200.61 52.63Q201.75 53.78 203.30 54.44Q204.84 55.09 206.59 55.09L206.59 55.09Q207.84 55.09 209 54.75Q210.16 54.41 211.17 53.77Q212.19 53.13 212.98 52.20Q213.78 51.28 214.28 50.16L214.28 50.16L220.53 56.44Q219.34 58.13 217.80 59.47Q216.25 60.81 214.45 61.75Q212.66 62.69 210.67 63.17Q208.69 63.66 206.59 63.66L206.59 63.66Q203.06 63.66 199.95 62.33Q196.84 61 194.52 58.69Q192.19 56.38 190.84 53.28Q189.50 50.19 189.50 46.66L189.50 46.66Q189.50 42.81 190.84 39.47Q192.19 36.13 194.52 33.64Q196.84 31.16 199.95 29.72Q203.06 28.28 206.59 28.28L206.59 28.28Q208.69 28.28 210.70 28.81Q212.72 29.34 214.55 30.36Q216.38 31.38 217.92 32.84Q219.47 34.31 220.59 36.22ZM233.34 58.75L233.34 63.03L224.75 63.03L224.75 16.25L233.34 16.25L233.34 45.75L246.06 29.63L255.88 29.63L244.78 43.56L255.88 63.03L246.06 63.03L239.28 50.88L233.34 58.75ZM278.09 27.19L269.13 27.19L269.13 45.13L278.09 45.13Q279.94 45.13 281.56 44.42Q283.19 43.72 284.41 42.50Q285.63 41.28 286.33 39.64Q287.03 38 287.03 36.16L287.03 36.16Q287.03 34.31 286.33 32.67Q285.63 31.03 284.41 29.81Q283.19 28.59 281.56 27.89Q279.94 27.19 278.09 27.19L278.09 27.19ZM269.13 54.06L269.13 63.03L260.16 63.03L260.16 18.22L278.09 18.22Q280.56 18.22 282.84 18.86Q285.13 19.50 287.11 20.67Q289.09 21.84 290.73 23.48Q292.38 25.13 293.55 27.13Q294.72 29.13 295.36 31.41Q296 33.69 296 36.16L296 36.16Q296 38.47 295.42 40.66Q294.84 42.84 293.77 44.81Q292.69 46.78 291.13 48.44Q289.56 50.09 287.63 51.31L287.63 51.31L292.59 63.03L283.06 63.03L279.16 54L269.13 54.06ZM345.78 40.81L345.78 40.81Q345.78 44 344.95 46.95Q344.13 49.91 342.63 52.48Q341.13 55.06 339 57.19Q336.88 59.31 334.31 60.83Q331.75 62.34 328.78 63.17Q325.81 64 322.63 64L322.63 64Q319.44 64 316.48 63.17Q313.53 62.34 310.95 60.83Q308.38 59.31 306.25 57.19Q304.13 55.06 302.61 52.48Q301.09 49.91 300.27 46.95Q299.44 44 299.44 40.81L299.44 40.81Q299.44 37.63 300.27 34.66Q301.09 31.69 302.61 29.13Q304.13 26.56 306.25 24.44Q308.38 22.31 310.95 20.81Q313.53 19.31 316.48 18.48Q319.44 17.66 322.63 17.66L322.63 17.66Q325.81 17.66 328.78 18.48Q331.75 19.31 334.31 20.81Q336.88 22.31 339 24.44Q341.13 26.56 342.63 29.13Q344.13 31.69 344.95 34.66Q345.78 37.63 345.78 40.81ZM336.88 40.81L336.88 40.81Q336.88 37.88 335.75 35.27Q334.63 32.66 332.70 30.73Q330.78 28.81 328.17 27.69Q325.56 26.56 322.63 26.56L322.63 26.56Q319.66 26.56 317.06 27.69Q314.47 28.81 312.53 30.73Q310.59 32.66 309.47 35.27Q308.34 37.88 308.34 40.81L308.34 40.81Q308.34 43.75 309.47 46.33Q310.59 48.91 312.53 50.84Q314.47 52.78 317.06 53.91Q319.66 55.03 322.63 55.03L322.63 55.03Q325.56 55.03 328.17 53.91Q330.78 52.78 332.70 50.84Q334.63 48.91 335.75 46.33Q336.88 43.75 336.88 40.81ZM396.13 31.03L396.13 63.03L387.19 63.03L387.19 31.03Q387.19 30.09 386.83 29.28Q386.47 28.47 385.86 27.86Q385.25 27.25 384.44 26.91Q383.63 26.56 382.69 26.56L382.69 26.56Q381.75 26.56 380.94 26.91Q380.13 27.25 379.52 27.86Q378.91 28.47 378.56 29.28Q378.22 30.09 378.22 31.03L378.22 31.03L378.22 63.03L369.25 63.03L369.25 31.03Q369.25 30.09 368.91 29.28Q368.56 28.47 367.95 27.86Q367.34 27.25 366.53 26.91Q365.72 26.56 364.78 26.56L364.78 26.56Q363.84 26.56 363.03 26.91Q362.22 27.25 361.61 27.86Q361 28.47 360.66 29.28Q360.31 30.09 360.31 31.03L360.31 31.03L360.31 63.03L351.34 63.03L351.34 31.03Q351.34 28.25 352.39 25.80Q353.44 23.34 355.27 21.52Q357.09 19.69 359.55 18.64Q362 17.59 364.78 17.59L364.78 17.59Q367.28 17.59 369.59 18.48Q371.91 19.38 373.75 21.06L373.75 21.06Q375.59 19.38 377.89 18.48Q380.19 17.59 382.69 17.59L382.69 17.59Q385.47 17.59 387.92 18.64Q390.38 19.69 392.20 21.52Q394.03 23.34 395.08 25.80Q396.13 28.25 396.13 31.03L396.13 31.03ZM413.72 59.84L413.72 59.84Q413.72 60.97 413.31 61.95Q412.91 62.94 412.19 63.66Q411.47 64.38 410.50 64.80Q409.53 65.22 408.41 65.22L408.41 65.22Q407.31 65.22 406.33 64.80Q405.34 64.38 404.61 63.66Q403.88 62.94 403.45 61.95Q403.03 60.97 403.03 59.84L403.03 59.84Q403.03 58.75 403.45 57.78Q403.88 56.81 404.61 56.09Q405.34 55.38 406.33 54.95Q407.31 54.53 408.41 54.53L408.41 54.53Q409.53 54.53 410.50 54.95Q411.47 55.38 412.19 56.09Q412.91 56.81 413.31 57.78Q413.72 58.75 413.72 59.84ZM449.31 36.22L449.31 36.22L443.06 42.50Q442.59 41.19 441.78 40.14Q440.97 39.09 439.95 38.38Q438.94 37.66 437.75 37.28Q436.56 36.91 435.31 36.91L435.31 36.91Q433.56 36.91 432.02 37.63Q430.47 38.34 429.33 39.64Q428.19 40.94 427.53 42.72Q426.88 44.50 426.88 46.66L426.88 46.66Q426.88 48.41 427.53 49.94Q428.19 51.47 429.33 52.63Q430.47 53.78 432.02 54.44Q433.56 55.09 435.31 55.09L435.31 55.09Q436.56 55.09 437.72 54.75Q438.88 54.41 439.89 53.77Q440.91 53.13 441.70 52.20Q442.50 51.28 443 50.16L443 50.16L449.25 56.44Q448.06 58.13 446.52 59.47Q444.97 60.81 443.17 61.75Q441.38 62.69 439.39 63.17Q437.41 63.66 435.31 63.66L435.31 63.66Q431.78 63.66 428.67 62.33Q425.56 61 423.23 58.69Q420.91 56.38 419.56 53.28Q418.22 50.19 418.22 46.66L418.22 46.66Q418.22 42.81 419.56 39.47Q420.91 36.13 423.23 33.64Q425.56 31.16 428.67 29.72Q431.78 28.28 435.31 28.28L435.31 28.28Q437.41 28.28 439.42 28.81Q441.44 29.34 443.27 30.36Q445.09 31.38 446.64 32.84Q448.19 34.31 449.31 36.22ZM485.31 46L485.31 46Q485.31 49.75 483.97 52.98Q482.63 56.22 480.31 58.58Q478 60.94 474.89 62.30Q471.78 63.66 468.22 63.66L468.22 63.66Q464.69 63.66 461.58 62.30Q458.47 60.94 456.14 58.58Q453.81 56.22 452.47 52.98Q451.13 49.75 451.13 46L451.13 46Q451.13 42.19 452.47 38.94Q453.81 35.69 456.14 33.33Q458.47 30.97 461.58 29.63Q464.69 28.28 468.22 28.28L468.22 28.28Q471.78 28.28 474.89 29.55Q478 30.81 480.31 33.14Q482.63 35.47 483.97 38.73Q485.31 42 485.31 46ZM476.72 46L476.72 46Q476.72 43.94 476.05 42.27Q475.38 40.59 474.22 39.39Q473.06 38.19 471.52 37.55Q469.97 36.91 468.22 36.91L468.22 36.91Q466.47 36.91 464.92 37.55Q463.38 38.19 462.23 39.39Q461.09 40.59 460.44 42.27Q459.78 43.94 459.78 46L459.78 46Q459.78 47.94 460.44 49.59Q461.09 51.25 462.23 52.47Q463.38 53.69 464.92 54.39Q466.47 55.09 468.22 55.09L468.22 55.09Q469.97 55.09 471.52 54.44Q473.06 53.78 474.22 52.59Q475.38 51.41 476.05 49.72Q476.72 48.03 476.72 46ZM532.59 41.78L532.59 63.03L524.09 63.03L524.09 41.78Q524.09 40.91 523.77 40.13Q523.44 39.34 522.84 38.75Q522.25 38.16 521.47 37.83Q520.69 37.50 519.81 37.50L519.81 37.50Q518.94 37.50 518.17 37.83Q517.41 38.16 516.83 38.75Q516.25 39.34 515.92 40.13Q515.59 40.91 515.59 41.78L515.59 41.78L515.59 63.03L507.06 63.03L507.06 41.78Q507.06 40.91 506.73 40.13Q506.41 39.34 505.81 38.75Q505.22 38.16 504.44 37.83Q503.66 37.50 502.78 37.50L502.78 37.50Q501.91 37.50 501.14 37.83Q500.38 38.16 499.80 38.75Q499.22 39.34 498.89 40.13Q498.56 40.91 498.56 41.78L498.56 41.78L498.56 63.03L490.03 63.03L490.03 29.56L492.09 29.56L494.41 32.13Q496.19 30.63 498.33 29.80Q500.47 28.97 502.78 28.97L502.78 28.97Q505.13 28.97 507.36 29.84Q509.59 30.72 511.28 32.88L511.28 32.88Q512.06 31.81 513.06 31.06Q514.06 30.31 515.17 29.84Q516.28 29.38 517.47 29.17Q518.66 28.97 519.81 28.97L519.81 28.97Q522.47 28.97 524.80 29.97Q527.13 30.97 528.86 32.70Q530.59 34.44 531.59 36.78Q532.59 39.13 532.59 41.78L532.59 41.78Z" transform="translate(0, 0)"></path></g></svg></svg>
                </g>
            </svg>
        